<?xml version="1.0" encoding="UTF-8" standalone="no"?>
<!DOCTYPE svg PUBLIC "-//W3C//DTD SVG 1.1//EN" "http://www.w3.org/Graphics/SVG/1.1/DTD/svg11.dtd">
<svg width="100%" height="100%" viewBox="0 0 605 951" version="1.1" xmlns="http://www.w3.org/2000/svg" xmlns:xlink="http://www.w3.org/1999/xlink" xml:space="preserve" xmlns:serif="http://www.serif.com/" style="fill-rule:evenodd;clip-rule:evenodd;stroke-linejoin:round;stroke-miterlimit:2;">
    <g id="Artboard1" transform="matrix(1,0,0,0.882661,-1.02839,-1.2147)">
        <rect x="1.028" y="1.376" width="604.061" height="1076.93" style="fill:none;"/>
        <g id="Dragon" transform="matrix(0.380271,0.00240378,-0.00290878,0.468314,-385.303,-172.748)">
            <path d="M1161.87,1994.94C1162.98,1993.53 1164.54,1991.28 1166.57,1989.05C1169.61,1985.89 1170.99,1985.15 1177.6,1983.72C1185.98,1981.9 1184.37,1981.6 1219.81,1992.19C1261.01,2004.59 1287.91,2007.67 1314.7,2003.17C1330.54,2000.49 1337.27,1997.73 1346.23,1990.45C1366.96,1973.22 1371.02,1945.78 1357,1917.81C1352.44,1908.68 1346.3,1898.47 1342.99,1894.62C1342.17,1893.71 1340.27,1890.64 1338.85,1887.9C1337.42,1885.16 1335.78,1882.8 1335.32,1882.57C1334.85,1882.35 1333.27,1880.3 1331.92,1877.87L1326.18,1868.35L1324.7,1874.65C1325.2,1876.94 1331.87,1882.88 1333.04,1884.48C1335.46,1887.99 1340.55,1897.65 1348.11,1912.99C1364.39,1945.7 1358.85,1973.45 1333.01,1988.53C1325.78,1992.82 1319.29,1994.33 1306.05,1995.14C1281.55,1996.43 1261.08,1993.47 1211.11,1981.13C1194.98,1977.23 1187.86,1976.27 1180.65,1977.29C1176.76,1977.92 1172.12,1978.92 1170.34,1979.75C1167.01,1981.17 1160.36,1991.6 1159.84,1995.1C1155.13,1995.74 1145.54,1999.4 1141,2002.4C1138.8,2003.8 1135.5,2007.3 1133.5,2010.2C1130.4,2014.8 1130,2016.2 1130,2021.6C1130,2029.3 1134.1,2038.1 1140.5,2043.8C1142.9,2046 1144.6,2048 1144.3,2048.4C1143.9,2048.7 1139.3,2049 1133.9,2049C1122.5,2049 1115.5,2051.2 1109,2056.7C1098.9,2065.4 1098.1,2079.4 1107.5,2086.5C1110.3,2088.7 1111,2089.8 1110.5,2091.4C1107.9,2099.7 1107.1,2106.9 1108.1,2114.3C1109.6,2125.7 1113.8,2132.8 1116,2127.9C1121.4,2116.3 1123.5,2114 1133.2,2109.5C1140.2,2106.3 1147.2,2105.5 1154,2107.3L1159.5,2108.7L1159.5,2119.8C1159.5,2133.2 1160,2134 1166.8,2132C1173.3,2130.1 1179,2129.7 1183,2130.7C1187.2,2131.8 1187.6,2132.9 1184.7,2136C1180.6,2140.4 1179,2143.4 1179,2146.3C1179,2149.9 1181,2150.6 1186.3,2148.5C1192.1,2146.3 1197.6,2146.8 1197.2,2149.4C1197,2150.4 1195.9,2152.5 1194.8,2154.1C1193.3,2156.1 1192.9,2157.6 1193.4,2159.5C1194,2161.8 1194.5,2162.1 1196.8,2161.6C1198.3,2161.2 1201.4,2160.7 1203.8,2160.3C1208.6,2159.7 1208.8,2160.1 1206.6,2166.5C1205.8,2168.6 1205.4,2171 1205.7,2171.7C1206.4,2173.5 1210,2173.3 1213.8,2171.4C1219,2168.8 1221.4,2169.8 1222.1,2174.7C1222.4,2177.1 1222.9,2179.3 1223.3,2179.6C1223.7,2180 1225.8,2179.6 1228.1,2178.7C1233.3,2176.6 1235,2177.3 1235,2181.6C1235,2186.2 1237.6,2187.5 1241.9,2184.9C1246.6,2182 1249,2182.4 1249,2185.9C1249,2187.6 1250,2190.1 1251.3,2191.5L1253.5,2194.2L1258,2190.6C1260.5,2188.6 1263.5,2187 1264.8,2187C1266.9,2187 1267,2187.3 1266.4,2190.5C1264.9,2198.7 1268.6,2202 1273.9,2197.1C1275.7,2195.4 1278,2193.8 1279.2,2193.5C1282,2192.6 1283.5,2194.3 1282.1,2196.8C1281.5,2197.9 1281,2200 1281,2201.4C1281,2204.5 1283.1,2204.8 1287.9,2202.4C1292.8,2200 1294.3,2201.1 1293.4,2206.6C1292.6,2212.2 1294,2213.6 1298.3,2211.4C1302.7,2209.1 1303.9,2210.1 1303.2,2215.6L1302.7,2220.3L1305.6,2219.8C1307.2,2219.5 1309.3,2219 1310.2,2218.5C1311.7,2217.9 1311.9,2218.4 1311.3,2222.8C1310.9,2226.6 1311.2,2228.5 1312.6,2230.9C1314,2233.3 1314.2,2234.2 1313.2,2235.2C1312.5,2235.9 1312,2237.4 1312,2238.7C1312,2241.9 1308.6,2244.7 1299,2249.2C1294.3,2251.4 1288.3,2254.3 1285.7,2255.6C1280.8,2258 1276.9,2258.5 1267,2257.8C1261.3,2257.4 1253.2,2253.4 1239,2243.9C1231,2238.6 1226.6,2236.5 1214.4,2232.5C1201.4,2228.3 1194.3,2227 1183.2,2227C1171.7,2227 1166.6,2225.5 1163.1,2221.3C1160.2,2217.8 1160.2,2217.8 1157.1,2219.5C1153.1,2221.5 1152.4,2221 1151.6,2216C1151.3,2213.8 1150.7,2212 1150.4,2212C1149.1,2212 1144.1,2215.1 1143.8,2216.1C1143.6,2216.8 1142.6,2217 1141.1,2216.5C1138.9,2215.8 1138.8,2215.4 1139.4,2210.4C1139.7,2207.4 1139.7,2205 1139.3,2205C1138.8,2205 1136.7,2206.2 1134.5,2207.5C1132.3,2208.9 1129.9,2210 1129.1,2210C1126.9,2210 1128.4,2202.5 1131.4,2198.1C1132.8,2196.1 1134,2194 1134,2193.6C1134,2193.1 1132.2,2193 1129.9,2193.4C1125.5,2194.1 1118.6,2198 1115.5,2201.6C1113,2204.4 1105.4,2208.4 1104,2207.5C1102.3,2206.5 1102.9,2199.7 1104.9,2196.3C1106,2194.6 1109.8,2190.1 1113.4,2186.3C1120.3,2179 1127.6,2174.6 1134.9,2173.4C1139.7,2172.6 1140.1,2171.6 1136.1,2169.6C1131,2166.9 1120.5,2165.8 1112.1,2167C1105.2,2168.1 1095.3,2171.4 1094,2173.1C1093.7,2173.4 1092.2,2174.4 1090.5,2175.3C1085.4,2177.9 1070.3,2194.4 1066.6,2201.5C1065.1,2204.2 1063.6,2206.7 1063.2,2207C1062.8,2207.3 1061.1,2209.1 1059.4,2211.1C1055.7,2215.4 1054.3,2223.6 1056,2231.5C1056.6,2234.2 1057.5,2240.3 1058,2245C1059.4,2259 1063.2,2266.9 1074,2278.5C1084.4,2289.6 1086,2291.8 1086,2295.4C1086,2300.2 1081.2,2304.1 1069.7,2308.8C1049.3,2317.2 1043,2323.9 1043,2337.8C1043,2347.9 1051,2357.3 1063.8,2362.3C1069.3,2364.5 1070.9,2363.6 1067.7,2360.1C1061.7,2353.8 1060.5,2346.7 1064.1,2339.3C1066.5,2334.4 1073.2,2328.2 1077,2327.4C1080,2326.8 1094.6,2322.4 1111.8,2316.9C1118.6,2314.8 1124.6,2313 1125.1,2313C1127.5,2313 1134.2,2305.1 1137.5,2298.4C1140.5,2292.3 1141.6,2291 1143.6,2291C1147.1,2291 1168.1,2298.4 1174.9,2302C1178.2,2303.8 1182.9,2307.2 1185.4,2309.8C1189.4,2313.8 1190,2314.9 1190,2318.5C1190,2321.4 1189.2,2323.9 1187.5,2326.5C1186,2328.5 1185.2,2330.5 1185.5,2330.8C1185.8,2331.1 1187.7,2330.5 1189.7,2329.5C1193.9,2327.2 1199,2319.8 1199,2316.1C1199,2311 1200.2,2310.5 1206.7,2312.9C1209.9,2314.1 1214.3,2316.3 1216.5,2317.8C1219.9,2320.1 1220.6,2321.2 1220.8,2324.5C1221.9,2336.4 1214.9,2346.9 1202,2353.1C1195.6,2356.1 1195.1,2356.6 1196.7,2357.8C1199,2359.5 1207.7,2358.7 1215.7,2355.9C1223.7,2353.2 1232,2347.4 1233.7,2343.2C1235,2340 1235.4,2339.8 1238.6,2340.3C1240.6,2340.6 1244.2,2342.6 1246.8,2344.8C1257.6,2353.7 1269.1,2360.1 1278.6,2362.4C1281.8,2363.2 1291.1,2364.6 1299.2,2365.4C1316.2,2367.1 1320.5,2368.6 1327,2375.3C1330.5,2379 1331.6,2379.7 1332.3,2378.5C1332.8,2377.6 1334.6,2377 1336.7,2377C1339.9,2377 1341,2377.7 1345.4,2382.7C1370.1,2410.9 1391.3,2423.4 1426.4,2430.4C1438,2432.7 1439.8,2433.9 1438.7,2438.2C1438.2,2440.2 1435.3,2441.8 1420.3,2448.4C1410.5,2452.7 1401.1,2456.8 1399.4,2457.6C1392.7,2460.5 1375.2,2465.9 1369,2466.9C1365.4,2467.5 1355.6,2468 1347.2,2468L1331.9,2468L1327.2,2463.7C1324.6,2461.3 1320.9,2458.3 1319,2457C1317.1,2455.7 1312.6,2451.9 1309,2448.4C1302,2441.6 1295.9,2438.3 1288.3,2437.4C1285.7,2437 1282.1,2435.9 1280.4,2434.9C1276.6,2432.6 1273.8,2432.6 1260.4,2434.5C1245,2436.8 1225.1,2445.1 1221.4,2450.8C1219.8,2453.2 1219.8,2453.3 1221.6,2452.6C1231.3,2448.8 1250.4,2447.4 1261.5,2449.7C1264.8,2450.4 1271,2451.5 1275.3,2452.2C1284.4,2453.6 1288.2,2455.6 1290.6,2460.2C1292.2,2463.4 1294.4,2465.4 1298.4,2467.5C1299.5,2468 1300.6,2469.1 1300.8,2469.9C1301.2,2471.1 1299.9,2471.2 1292.9,2470.5C1288.3,2470.1 1280,2469.6 1274.5,2469.4C1269,2469.3 1261.1,2468.4 1257,2467.4C1246.3,2464.8 1231.7,2465 1222.5,2468C1218.7,2469.3 1212.4,2470.4 1208.5,2470.6C1197.5,2471 1189.8,2475.3 1177.2,2488.1C1167.2,2498.2 1158.7,2512.9 1157.4,2522.3C1156.8,2526.3 1157,2527 1158.4,2527C1159.3,2527 1160.4,2526 1160.9,2524.7C1162.3,2521.2 1173.2,2511.5 1181.3,2506.8C1194.5,2499.1 1199.1,2497.6 1211.5,2497.5C1224.1,2497.3 1227.9,2496 1231.2,2490.4C1233.7,2486.1 1235.6,2486.1 1245.8,2490C1252.5,2492.5 1254.8,2492.9 1262.5,2492.8C1277.3,2492.7 1299,2499.5 1289.8,2501.4C1288.5,2501.7 1284.8,2502.4 1281.5,2503.1C1278.2,2503.7 1274,2504.8 1272.1,2505.6C1270.2,2506.4 1263,2507.7 1256.1,2508.4C1238.8,2510.4 1228.3,2514.3 1218.8,2522.1C1216.2,2524.3 1213.1,2526 1211.7,2526C1204.6,2526 1200.7,2530.1 1193,2545.6C1187.6,2556.6 1186.2,2565 1187.8,2577.2C1188.5,2583.1 1189.6,2587.3 1190.8,2588.9C1193.8,2593 1195,2592.7 1195,2587.7C1195,2585.3 1195.7,2581.3 1196.5,2579C1198.5,2573.2 1205.8,2563.3 1212.1,2557.6C1216.5,2553.6 1217.8,2553 1221.9,2552.9C1228.9,2552.7 1231.5,2551.8 1235.4,2548.2C1238.6,2545.3 1239,2544.4 1239,2540.1C1239,2535.5 1239.2,2535.1 1242.8,2533.4C1245.7,2532 1248.5,2531.6 1256.6,2531.8C1265.5,2532 1267.6,2531.8 1273.6,2529.4C1279,2527.3 1282.9,2526.6 1291.1,2526.3C1298.3,2525.9 1302,2526.1 1302.4,2526.9C1303.9,2529.2 1290.3,2536.1 1279.5,2538.5C1269.3,2540.8 1252.1,2552.7 1250.6,2558.5C1250.2,2560.2 1248.9,2561.2 1246.2,2562C1244.2,2562.7 1241.8,2563.7 1240.9,2564.3C1234.3,2569.2 1231.3,2585.3 1234.1,2600.6C1235.5,2608.3 1240.8,2619.5 1245.2,2624.2C1248.8,2628.2 1251.7,2629.3 1250.5,2626.2C1249,2622.6 1248.8,2611.9 1250,2607.3C1253.5,2594.3 1259.4,2585.9 1266.2,2584.1C1274.5,2581.9 1279.6,2575.3 1278.4,2568.2C1277.5,2562.7 1279.9,2561.1 1291,2559.4C1296.1,2558.7 1301.7,2557.3 1303.5,2556.3C1305.3,2555.3 1309.1,2553.3 1311.8,2551.8C1314.5,2550.3 1321.4,2547.9 1327.1,2546.5C1339.4,2543.4 1343,2541.9 1347.8,2538.2C1349.9,2536.7 1355.3,2533.2 1359.9,2530.5C1365,2527.5 1372.1,2521.9 1377.7,2516.5C1382.9,2511.5 1389.3,2506.1 1391.8,2504.4C1411.8,2491 1431.5,2496.6 1438,2517.3C1439.2,2521.2 1441.6,2527 1443.2,2530.1C1444.8,2533.3 1446,2536.9 1445.9,2538.1C1445.7,2539.4 1446.4,2542.8 1447.3,2545.6C1448.9,2550.2 1448.9,2551.2 1447.7,2554.8C1444.8,2563.2 1439.6,2570.2 1431.1,2577.2C1427.1,2580.5 1427,2580.5 1435.6,2577.9C1444,2575.3 1452.1,2571.6 1457.5,2567.9C1463.7,2563.7 1479.6,2547.9 1481.5,2544.1C1483.4,2540.3 1482.9,2534.5 1480.5,2533.6C1479.7,2533.3 1479,2532.2 1479,2531.1C1479,2526.6 1471.4,2515.3 1461.3,2504.8C1447.3,2490.3 1444.8,2484.4 1448.9,2475.5C1453,2466.5 1464.7,2459.5 1486.6,2453C1506.4,2447.1 1518.4,2442.6 1535,2435C1543,2431.3 1551.2,2427.8 1553.2,2427.1C1555.3,2426.4 1557.2,2425.4 1557.5,2424.9C1557.9,2424.4 1560.1,2424 1562.6,2424C1571.1,2424 1580.4,2432.7 1581.9,2441.9C1582.3,2444.7 1583,2447.3 1583.4,2447.7C1584.6,2448.9 1589.1,2443.6 1592.2,2437.3C1595,2431.6 1595.2,2430.4 1594.8,2423.6C1594.5,2418.5 1593.6,2415.1 1592.2,2412.5C1591,2410.5 1590,2408.5 1590,2408.1C1590,2404.8 1609.3,2406.8 1624.1,2411.6C1641.3,2417.1 1647.3,2423.3 1649.3,2437.6C1650,2442.4 1651.1,2446.5 1651.7,2446.7C1652.3,2446.9 1654.7,2444.7 1657,2441.8C1659.3,2438.9 1662.6,2435.3 1664.4,2433.9C1666.1,2432.4 1669.5,2427.6 1671.8,2423.1C1675.4,2416.4 1676,2414.3 1675.4,2411.7C1674.5,2407.5 1671.1,2400.7 1669.4,2399.7C1668.6,2399.3 1668,2398.4 1668,2397.7C1667.9,2395.5 1662.6,2390.3 1656.8,2386.6C1653.6,2384.6 1651,2382.5 1651,2381.9C1651,2379.2 1660.1,2382.3 1677.8,2391.2C1695.9,2400.2 1696.6,2400.7 1700.2,2406C1707.6,2416.9 1708.3,2427.4 1702.7,2441.5C1700.7,2446.4 1699.4,2450.8 1699.9,2451.3C1700.8,2452.2 1706.4,2446.6 1712.5,2438.5C1725.1,2421.7 1731.9,2399.5 1728.6,2386.6C1726.1,2377.1 1721.9,2369.9 1714.7,2362.7C1703.4,2351.5 1707.1,2350 1730.6,2356C1745.5,2359.9 1757.8,2362.6 1766,2363.7C1767.9,2364 1770.3,2364.9 1771.3,2365.8C1772.3,2366.7 1775.1,2367.4 1777.8,2367.5C1780.4,2367.6 1786.1,2368.8 1790.5,2370.3C1794.9,2371.7 1802.8,2373.8 1808,2375.1C1813.2,2376.3 1819.6,2378.1 1822.2,2379.1C1825.6,2380.5 1830.4,2381.2 1838.7,2381.5C1845.2,2381.7 1855.5,2382.4 1861.5,2383C1892.9,2385.8 1898.8,2386.3 1902.5,2386.6C1904.7,2386.7 1907.1,2386.8 1907.9,2386.9C1908.7,2387 1909,2387.6 1908.6,2388.6C1908.1,2390 1908.4,2390.1 1910.7,2389.5C1912.3,2389.2 1919.4,2388.5 1926.5,2388C1944.5,2386.9 1972.7,2383.2 1976.1,2381.4C1981.9,2378.4 1986,2380.1 1986,2385.5C1986,2394.9 1968.7,2418.5 1954,2429.3C1951,2431.5 1945.6,2435.7 1942,2438.6C1933.2,2445.6 1923.6,2451.3 1897.5,2464.4C1877,2474.8 1861.4,2481.6 1849.5,2485.4C1843.5,2487.3 1833.2,2488.7 1818.5,2489.5L1807.4,2490.1L1802.5,2486.5C1799.7,2484.6 1795.5,2481.7 1793.1,2480.2C1790.7,2478.7 1785.9,2474.9 1782.6,2471.8C1775.8,2465.5 1767.9,2461.4 1761,2460.4C1758.5,2460.1 1754.5,2458.9 1752,2457.8C1746.9,2455.5 1742.9,2455.7 1728.5,2458.8C1715.5,2461.6 1697,2470.5 1694,2475.4C1692.7,2477.5 1692.8,2477.5 1703.3,2474.7C1713.4,2471.9 1725,2471.5 1732.9,2473.5C1738,2474.9 1740.5,2475.1 1742.1,2474.4C1743.7,2473.6 1746.1,2473.8 1750.4,2475C1757.9,2477 1761.3,2479.2 1763.8,2483.5C1764.9,2485.3 1767.6,2487.8 1769.9,2489.1C1772.2,2490.3 1774,2492 1774,2492.8C1774,2494 1772.8,2494.1 1766.3,2493.4C1762,2492.9 1754.4,2492.6 1749.4,2492.8C1743.5,2493 1737.5,2492.5 1732.4,2491.4C1727.8,2490.4 1720.4,2489.7 1714.5,2489.7C1706.2,2489.7 1703.2,2490.2 1697,2492.5C1692.9,2494 1685.9,2495.5 1681.5,2496C1673,2496.8 1666.1,2499.3 1661,2503.6C1659.3,2505.1 1654.9,2510.3 1651.1,2515.4C1639.4,2531 1634.6,2541.2 1635.2,2549.8C1635.5,2554.4 1637.2,2556 1637.8,2552.1C1638.3,2549.2 1648.6,2538.4 1655.2,2533.9C1663.2,2528.4 1674.7,2523.1 1679,2522.9C1680.9,2522.8 1685.7,2523.2 1689.7,2523.9C1693.7,2524.6 1697.5,2524.8 1698.3,2524.3C1701.7,2522.3 1706,2518 1706,2516.6C1706,2512.1 1712.5,2510.8 1720.1,2513.7C1722.9,2514.7 1729.5,2515.6 1738.5,2516C1752.1,2516.7 1762.3,2518.7 1766.3,2521.5C1768,2522.7 1767.9,2522.9 1764.8,2523.5C1763,2523.9 1756.8,2525.7 1751,2527.6C1745.2,2529.4 1736.3,2531.4 1731.2,2532C1716.7,2533.6 1707.5,2537.3 1697.2,2545.6C1693.9,2548.3 1690.5,2550.1 1687.9,2550.5C1682.6,2551.4 1678.1,2556 1674,2564.5C1667.5,2578 1665.6,2590.4 1668.1,2602.2C1669.4,2608.3 1673.7,2617.3 1674.9,2616.6C1675.3,2616.3 1676,2613.3 1676.3,2609.9C1677,2602.4 1681.1,2593.7 1687.7,2585.8C1693.4,2579.1 1696.4,2577.5 1700.4,2579C1707.8,2581.8 1719,2577.3 1719,2571.5C1719,2570.4 1719.5,2568.9 1720.1,2568.3C1720.8,2567.6 1720.8,2566 1720,2563C1718.2,2556.4 1719.6,2555.7 1733.8,2554.9C1743.2,2554.4 1746.9,2553.8 1752.5,2551.6C1758,2549.4 1761.8,2548.7 1770.2,2548.3C1776.4,2547.9 1781,2548.1 1781,2548.6C1781,2550.4 1769,2557.1 1760.7,2559.9C1755.9,2561.5 1749.4,2564.3 1746.2,2566C1739.5,2569.6 1731.3,2577.1 1729.5,2581.5C1728.7,2583.4 1727,2584.8 1724.9,2585.5C1723.1,2586.1 1720.3,2588.2 1718.8,2590.2C1716.3,2593.2 1715.8,2595 1714.9,2603.3C1713.8,2614.4 1714.7,2622 1718.2,2630.7C1721.4,2638.5 1727.4,2647.4 1730.4,2648.8L1732.9,2649.9L1732.3,2639.5C1731.7,2629.6 1731.8,2628.6 1734.5,2622.3C1739.2,2611 1741.1,2608.8 1749.6,2604.4C1756.5,2600.9 1759.3,2597 1759.4,2590.7C1759.6,2584.7 1761.9,2582.4 1768.8,2581.5C1776.8,2580.4 1781.3,2578.9 1785.5,2576C1791.9,2571.6 1796.9,2569.5 1806.5,2567C1816.8,2564.4 1819.9,2563 1825.5,2558.6C1827.7,2556.8 1832.9,2553.2 1837,2550.5C1841.2,2547.7 1849.4,2540.5 1855.5,2534.3C1868.2,2521.4 1875.8,2516.9 1886.3,2516.2C1901.1,2515.1 1909.1,2521.7 1916,2540.9C1917.3,2544.4 1919.8,2548.7 1921.5,2550.6C1923.4,2552.5 1924.8,2555.1 1924.9,2556.7C1924.9,2558.3 1925.3,2562.3 1925.6,2565.7C1926.1,2571.4 1925.9,2572.6 1922.6,2579.3C1919.3,2586.2 1913.9,2592.5 1908.4,2595.6C1905.2,2597.5 1907.7,2598.4 1912.2,2597C1919.4,2594.7 1929.7,2589.3 1936.3,2584.4C1943.4,2579 1953,2570 1953,2568.7C1953,2568.2 1954.4,2566.1 1956,2564C1960.1,2558.9 1960.1,2554.3 1956,2549.6C1954.3,2547.7 1952.2,2543.8 1951.4,2540.8C1950,2536.1 1948.4,2534.1 1937,2523C1923.8,2510.1 1921,2505.9 1921,2499.2C1921,2494.4 1924.4,2487.8 1928.8,2483.9C1934.1,2479.2 1947.4,2473.2 1955.1,2472C1958.8,2471.5 1963.7,2469.9 1966.1,2468.6C1968.5,2467.2 1972.8,2465.6 1975.5,2464.9C1983.3,2463 2014.6,2446.2 2027.1,2437.3C2029.6,2435.5 2035.2,2430.3 2039.6,2425.6C2047,2417.7 2047.8,2417.1 2052.5,2416.5C2064.4,2415.1 2080.6,2410.7 2085.1,2407.7C2093.8,2402 2099.2,2391.1 2097,2383.6C2095.8,2379.6 2095.8,2379.5 2099.6,2376.2C2106.4,2370.3 2109,2367.4 2109,2365.6C2109,2364.8 2109.4,2363.9 2109.9,2363.6C2112.8,2361.8 2111.5,2345.3 2108.1,2341.6C2107.1,2340.4 2105.4,2338 2104.4,2336.2C2102,2332.1 2103.3,2331 2110.4,2331C2114.6,2331 2118.5,2329.4 2139.9,2318.6C2161.8,2307.6 2175.7,2299.9 2191.5,2290.2C2194.3,2288.5 2198.5,2285.9 2201,2284.4C2203.5,2282.9 2210.8,2278.2 2217.2,2273.9C2223.6,2269.7 2233.3,2263.6 2238.7,2260.4C2244.1,2257.2 2250.8,2252.8 2253.7,2250.5C2256.5,2248.3 2260.5,2245.4 2262.5,2244C2274.9,2235.4 2292.8,2218.1 2325.2,2183.4C2342.6,2164.7 2347.9,2158.3 2364.1,2137C2378.7,2117.8 2388.1,2103.3 2403.7,2075.5C2410.5,2063.5 2418.1,2047.1 2423.1,2033.7C2424.7,2029.2 2426.6,2024.4 2427.2,2023C2433.7,2007.6 2440.7,1978.6 2443.5,1955.7C2446.3,1932.7 2445,1899.2 2441,1889.4C2439.5,1885.9 2440.2,1883.2 2442.7,1882.3C2447.7,1880.6 2455.7,1874.4 2458.3,1870.3C2461.2,1865.6 2463.3,1858.3 2462,1857.5C2461.6,1857.3 2461,1854.9 2460.8,1852.2C2460.4,1848.6 2459.4,1846.1 2456.7,1842.5C2454.6,1839.9 2453,1837.4 2453,1837C2453,1836.7 2455.5,1833 2458.5,1829C2470.7,1812.7 2475.8,1787 2472.1,1760C2469.7,1742.6 2471.8,1733.7 2480.2,1726.6C2489,1719 2500.8,1717.5 2527.1,1720.5C2537.3,1721.7 2544,1721.9 2555.1,1721.2C2572.7,1720.2 2575.6,1719 2585.2,1708.2C2592.8,1699.8 2597.2,1691.2 2599,1681.8C2600.2,1675.3 2599.6,1668.6 2598,1669.2C2597.5,1669.4 2595.2,1672.2 2592.7,1675.6C2582,1690.1 2569.8,1696 2546,1697.9C2540.2,1698.4 2531.5,1699.6 2526.5,1700.5C2505.3,1704.6 2490.9,1699.4 2489.3,1687.1C2488.6,1682.1 2492.2,1673.2 2497.9,1665.7C2504.8,1656.4 2505.7,1654.8 2507.5,1648.4C2508.4,1645.2 2510.3,1639.9 2511.7,1636.8L2514.3,1631L2512.5,1621C2510.8,1611.5 2510.7,1610.8 2512.4,1605.3C2514.1,1599.6 2514.1,1599.4 2512.1,1594L2510,1588.5L2512.5,1586.3C2514,1585 2515.7,1584 2516.4,1584C2518.3,1584 2522.8,1578.8 2524.2,1575C2527.4,1566.3 2531.1,1561.1 2537.4,1556.1C2545.2,1549.8 2557.3,1543.7 2566,1541.5C2575.6,1539.1 2575.7,1539.1 2574,1538C2571.7,1536.5 2555.5,1536.8 2545.5,1538.5C2531.4,1540.8 2520,1544.1 2516.9,1546.7C2516.1,1547.3 2513.5,1548.3 2511,1549C2502.3,1551.2 2494.6,1557.9 2493.6,1563.8C2493.3,1566 2492,1568.6 2490.4,1570.1C2483.3,1576.8 2480.2,1586.6 2482.1,1597.1C2483.1,1602.9 2483,1604.3 2481.5,1608.4C2479.1,1614.7 2477,1614.5 2472.4,1607.2C2469.4,1602.6 2468.6,1600.2 2468.1,1594.8C2467.6,1589.7 2466.9,1587.4 2465,1585.3C2463.6,1583.8 2462.2,1582.4 2461.8,1582.2C2460.1,1581.4 2461.1,1577.2 2463.5,1575C2464.9,1573.7 2466,1571.9 2466,1570.9C2466,1569.9 2466.4,1568.9 2466.9,1568.5C2467.5,1568.2 2467.5,1566.8 2466.8,1564.9C2465.9,1562.3 2466.1,1561.6 2467.9,1559.6C2469.1,1558.3 2470.4,1555.5 2470.7,1553.4C2472.1,1544.2 2484.5,1531 2498.4,1523.9C2503.1,1521.5 2507,1519.2 2507,1518.8C2507,1516.6 2482.2,1522.7 2470.2,1527.9C2455.2,1534.4 2439.7,1545.7 2436,1552.8C2435.1,1554.6 2435.1,1555.8 2436,1558C2437,1560.5 2436.8,1561.3 2434.5,1564.8C2432.5,1567.9 2431.7,1570.5 2431.3,1576.2C2430.8,1583.3 2430.9,1583.8 2434.9,1591.7C2437.4,1596.8 2439,1601.3 2439,1603.5C2439,1605.5 2439.5,1609.1 2440.1,1611.5C2440.7,1614 2441,1616.7 2440.6,1617.5C2440.1,1618.9 2439.7,1618.9 2436.8,1617.4C2429.5,1613.6 2421.8,1607.7 2419.2,1603.7C2415.8,1598.4 2414.9,1597.6 2407.2,1593.8C2400.2,1590.3 2398.6,1588.3 2399.3,1583.7C2399.5,1582 2399.3,1578.9 2398.8,1576.8C2398.2,1573.9 2398.3,1572.4 2399.3,1570.9C2400.5,1569.2 2400.5,1568.4 2398.7,1564.9C2396.9,1561.1 2396.8,1560.2 2397.9,1554.1C2399.6,1545.1 2404.2,1536 2410.6,1529.5C2418.6,1521.3 2412.3,1522.8 2397.3,1532.5C2386.5,1539.6 2377.4,1548.9 2371.1,1559.4C2364.4,1570.5 2363.9,1573.2 2367.9,1579C2369.9,1582 2371,1584.7 2371,1587.2C2371,1591.8 2374.3,1599.6 2377.8,1603.4C2379.3,1605 2383.2,1608.2 2386.5,1610.6C2389.8,1613.1 2394.3,1617.5 2396.6,1620.5C2398.8,1623.6 2402.6,1627.6 2404.8,1629.6C2410.3,1634.2 2410.4,1636.5 2405.3,1635.6C2403.2,1635.2 2398.4,1634.7 2394.5,1634.3C2388.8,1633.8 2386.9,1633.2 2384.3,1630.9C2382.5,1629.4 2377.5,1626.3 2373.1,1624C2368.6,1621.7 2363.4,1618.1 2361.4,1616.1C2357.6,1612.3 2353,1603.9 2353,1600.5C2353,1597.2 2351.7,1596 2349.8,1597.4C2347.2,1599.3 2344.7,1609.4 2345.2,1616.4C2345.5,1620.3 2345.2,1623.7 2344.3,1625.8C2343,1628.8 2343.1,1629.4 2345.1,1632.7C2346.6,1635.2 2349.1,1637 2352.9,1638.8C2356,1640.1 2359.5,1642.5 2360.7,1644C2364.9,1649.2 2370.7,1651 2382.8,1651C2389.6,1651 2395.5,1651.6 2398.6,1652.5C2401.3,1653.3 2406.4,1654.3 2410,1654.6C2413.6,1655 2417.9,1655.9 2419.5,1656.7C2423.2,1658.4 2431,1668.6 2434.7,1676.6C2437.4,1682.3 2437.5,1683 2437.4,1699C2437.3,1738.7 2428.8,1768.8 2411.4,1791.7C2405.4,1799.6 2402.3,1802 2398.5,1802C2395.9,1802 2395.5,1800.9 2395.9,1794.5C2396.1,1792 2394.8,1789.9 2388.6,1783C2375.6,1768.3 2360.5,1755 2333.4,1734.2C2318.7,1722.9 2313.9,1718.6 2308.6,1712C2305.5,1708.2 2303,1704.7 2303,1704.3C2302.9,1703.9 2301.1,1701.7 2299,1699.5C2296.8,1697.3 2295,1695 2295,1694.4C2295,1693.8 2292.4,1690.6 2289.3,1687.3C2282.2,1679.8 2279,1675.6 2279,1673.7C2279,1673 2278.1,1671.5 2277,1670.5C2275.9,1669.5 2275,1668.2 2275,1667.5C2275,1666.9 2274,1665 2272.8,1663.3C2271.5,1661.6 2270,1659.4 2269.3,1658.3C2268.1,1656.6 2264.6,1651.5 2258,1642.2C2256.4,1639.8 2255,1637.6 2255,1637.3C2255,1636.9 2253.1,1633.7 2250.7,1630.1C2244.5,1620.4 2244.2,1619.9 2241.9,1615C2236.3,1602.7 2236.5,1583.2 2242.6,1555.5C2243.9,1549.2 2253.4,1530.3 2258.4,1523.8C2268.6,1510.3 2279.6,1499.5 2292.7,1489.9C2295.9,1487.5 2301,1483.8 2304,1481.5C2307,1479.2 2317.6,1472.4 2327.5,1466.5C2337.4,1460.6 2347.3,1454.5 2349.5,1453.1C2351.7,1451.6 2357.6,1448.1 2362.5,1445.3C2367.5,1442.5 2382.1,1434.3 2395,1427C2407.9,1419.7 2419.6,1413 2421,1412.1C2422.4,1411.2 2428.2,1408 2434,1405.1C2439.8,1402.3 2448.3,1397.5 2453,1394.5C2457.7,1391.6 2463.3,1388.2 2465.5,1387C2473.1,1382.8 2489.5,1371.6 2497.2,1365.4C2501.5,1361.9 2506,1358.6 2507.2,1357.9C2510.8,1356.1 2516.8,1350 2520.6,1344.5C2526,1336.5 2531.5,1329.2 2533.8,1326.7C2534.9,1325.5 2537.1,1322.3 2538.4,1319.7C2539.8,1317.1 2542.1,1313.9 2543.5,1312.6C2544.9,1311.3 2546,1309.8 2546,1309.3C2546,1308.7 2547.2,1306.5 2548.8,1304.4C2551.4,1300.7 2554.4,1295 2559,1285C2560.1,1282.5 2561.4,1279.8 2561.9,1279C2562.4,1278.2 2564.3,1274.3 2566,1270.5C2567.7,1266.6 2569.6,1262.7 2570.1,1261.8C2570.6,1260.8 2571,1259 2571,1257.6C2571,1256.3 2571.7,1254.7 2572.5,1254C2573.3,1253.3 2574,1251.6 2574,1250.1C2574,1248.6 2574.4,1247 2574.9,1246.4C2575.4,1245.9 2576.5,1242.8 2577.5,1239.5C2578.4,1236.2 2579.7,1232.1 2580.2,1230.5C2580.8,1228.8 2581.6,1225.7 2582,1223.5C2583.3,1217.2 2585.3,1210.8 2588.1,1203.5C2588.9,1201.3 2589.6,1198.4 2591.3,1189.3C2592,1185.9 2592.8,1182.8 2593.3,1182.4C2593.7,1182 2594,1180 2594,1177.9C2594,1175.8 2594.5,1173.8 2595.1,1173.5C2596.1,1172.8 2596.3,1166 2596.1,1142.7C2596,1130.2 2592.4,1100.2 2590.6,1097.5C2589.9,1096.4 2588.5,1092.1 2587.5,1088C2586.5,1083.9 2585.4,1080 2584.9,1079.4C2584.1,1078.4 2579.8,1066.6 2577.8,1060C2577.3,1058.1 2576.2,1056.2 2575.5,1055.8C2574.8,1055.4 2573.9,1053.5 2573.6,1051.6C2573.2,1049.7 2572.3,1047.7 2571.5,1047C2570.7,1046.4 2569.6,1044.3 2569,1042.5C2568.4,1040.7 2567.3,1038.9 2566.5,1038.6C2565.7,1038.3 2565,1037.1 2565,1036C2565,1034.9 2564.1,1033.2 2563,1032.3C2561.9,1031.3 2561,1030.1 2561,1029.5C2561,1029 2559,1025.6 2556.5,1022C2554,1018.4 2552,1015.2 2552,1014.8C2552,1014.4 2550.5,1012 2548.8,1009.4C2547,1006.9 2544.8,1003.8 2544,1002.5C2540.2,996.9 2538.4,994.4 2537.3,993.2C2536.6,992.5 2536,991.3 2536,990.6C2536,989.9 2535.1,988.5 2534,987.5C2532.9,986.5 2532,985.1 2532,984.5C2532,983.8 2529.4,980.5 2526.3,977.2C2518.9,969.3 2513.7,963.3 2512.6,961.2C2510.1,956.2 2476.5,927.1 2450.5,907.3C2439.2,898.7 2417.5,885.5 2399,875.9C2383.1,867.7 2359.3,858.4 2336,851.4C2313.7,844.7 2300.1,841.7 2279.5,839.1C2275.1,838.5 2267.9,837.6 2263.5,837C2254.5,835.8 2208.3,835.4 2194.5,836.4C2171.6,838.2 2137.7,841.1 2130.5,842C2126.1,842.6 2120.3,843 2117.5,843C2114.8,843 2108.9,843.7 2104.5,844.5C2087.7,847.6 2046.7,847.3 2029.5,844C2026.8,843.5 2020.2,842.3 2015,841.4C2004.4,839.5 1997.5,837.3 1981.8,830.7C1966.6,824.3 1961.4,821.3 1954.5,814.8C1947.3,808.1 1939.8,795.1 1937.4,785C1934.1,771.8 1936.2,721.2 1940.3,710.5C1941.4,707.9 1942,702 1942.3,693.4C1942.5,686.2 1943.1,679.7 1943.5,679.1C1943.9,678.4 1944.6,673.9 1945.1,669.2C1945.6,664.4 1946.5,655.8 1947.1,650C1948.6,637.6 1948.6,637.5 1947.7,614.8C1946.9,591.9 1945.3,575.5 1943.5,570.5C1942.7,568.3 1941.4,563 1940.6,558.8C1939.8,554.6 1938.5,550.1 1937.7,548.8C1936.9,547.5 1935.9,544.9 1935.5,543C1935.1,541.1 1933.9,538.4 1932.9,537.1C1931.8,535.8 1931,533.9 1931,533C1931,532 1930.3,530.7 1929.5,530C1928.7,529.4 1927.8,527.9 1927.4,526.7C1927,525.5 1925.9,523.4 1925,522C1923.2,519.4 1916.2,508.7 1914.5,505.9C1905.3,491.1 1878,460.7 1870.5,457C1868.9,456.2 1862.6,452.8 1856.5,449.4C1839.3,439.8 1789.7,415.7 1777,410.7C1763.5,405.5 1737.1,396.7 1725,393.5C1720.3,392.2 1709.8,389.3 1701.5,387.1C1693.3,384.8 1683.8,382.6 1680.5,382.1C1677.2,381.5 1668,380 1660,378.6C1652,377.2 1641,375.6 1635.5,375C1630,374.4 1622,373.5 1617.7,373C1607.8,371.8 1579.7,370.6 1579,371.3C1578.7,371.6 1567.9,372.1 1555,372.4C1495,373.9 1462.3,378.9 1413.5,394.2C1384.2,403.3 1364.4,411.9 1342.3,425.1C1313,442.5 1304.6,449.3 1290.5,467.5C1286.7,472.5 1283.3,476.7 1283,477C1282.7,477.3 1280.8,480 1278.9,483C1275.8,487.9 1274.5,490.4 1271,498.5C1270.5,499.6 1269.4,503.2 1268.5,506.5C1267.5,509.8 1266.1,514.6 1265.4,517.1C1262,527.8 1263.6,550.7 1269.1,570.2C1277.1,599.1 1292.5,622.8 1322.9,653C1340,670 1357,684 1374.5,695.3C1378.4,697.8 1382.8,701.2 1384.4,702.9C1386.9,705.5 1387.1,706.2 1386,707.5C1385,708.7 1385,709.6 1385.9,711.6C1386.8,713.6 1386.7,714.6 1385.5,716.3C1384.7,717.5 1384,719.4 1384,720.6C1384,723.3 1382.3,724.7 1372,730.6C1362,736.4 1350.2,747.2 1346.1,754.4C1341,763.3 1339.7,768.4 1340.2,778.6C1340.9,794.2 1346.8,803 1365,815.7C1376.6,823.8 1385.6,833.4 1390.3,842.5L1394.3,850.5L1395.7,846C1397.7,839.6 1396.7,830.4 1393.4,823.8C1391.6,820.3 1387.1,815 1380.4,808.5C1369.2,797.6 1365.7,791.9 1364.5,782.4C1363.7,776.4 1365.9,766.1 1369.4,759.2C1374.6,748.9 1391.5,731 1396,731C1399.7,731 1398.8,733.9 1392.9,740.6C1382.1,752.8 1375.7,764.4 1374.4,774.2C1373.4,781.4 1375.5,789.7 1379.6,794.6C1384.2,800.3 1389.1,803.1 1403.2,807.9C1419,813.4 1424.9,816.1 1429.4,820C1435.2,825.1 1436.1,827.8 1437.6,844.9C1438.4,853.5 1439.8,863.2 1440.7,866.5C1443.5,877.1 1449.5,886 1457.9,891.9C1460.5,893.8 1461,893.9 1461,892.5C1461,891.7 1460.3,889.9 1459.6,888.7C1458.8,887.5 1456.9,883.1 1455.5,879C1451.9,868.6 1451.3,857.6 1453.5,841.7C1454.5,834.8 1455.1,826.2 1454.8,822.7C1454.1,811.5 1450.1,807.6 1425.6,794.5C1415.9,789.3 1410.2,784.7 1406.9,779.3C1402.4,772.1 1406.2,751 1413.1,744C1418.3,738.9 1421,740.2 1421,748C1421,753.3 1424.7,764.7 1428,769.5C1429.5,771.7 1436.1,778.9 1442.7,785.5C1449.3,792.1 1456,799.8 1457.6,802.5C1460.4,807.4 1460.5,807.8 1460.5,822C1460.5,840.6 1461.9,845.1 1469.9,853C1475.6,858.7 1486.2,864.9 1497.4,869.1C1500.7,870.3 1505.3,873.1 1507.8,875.4L1512.2,879.4L1511.6,886.2C1511.3,889.9 1510.7,896.1 1510.4,899.9C1509.9,905 1510.2,908.1 1511.5,911.9C1513.1,916.9 1516.4,922 1518,922C1518.5,922 1518.6,917.2 1518.3,911.2C1517.7,900.8 1517.8,900.2 1521.4,890C1525.7,877.4 1525.9,873.6 1522.5,868.9C1519.6,865.1 1516.2,862.8 1504.7,856.9C1495.7,852.3 1488.5,846.1 1486.4,841.2C1484.4,836.4 1484.6,827.9 1487.1,814.2C1491.3,790.6 1489.3,786.7 1461,765.8C1441.7,751.5 1435.1,743.6 1439.5,740.3C1444.1,737 1449.9,739.9 1460.1,750.9C1471.4,762.8 1483,777.6 1486,783.5C1487.4,786.2 1489,788.9 1489.6,789.5C1492.4,792.2 1496.2,803.5 1497.1,812.3C1499.8,838.4 1500.8,842.1 1506.6,848.9C1513,856.5 1520.3,859.7 1544.9,865.5C1570.8,871.6 1575.7,876.4 1578.6,899C1580.5,914 1581.2,916.1 1586.7,927.1C1592.1,937.9 1600.2,946.6 1612.5,954.9C1620.5,960.2 1621.6,960.5 1623.4,957.8C1624.1,956.6 1623.7,955.3 1621.4,952.4C1612,940.3 1609.8,936.8 1607.5,930.5C1604,921.2 1603.4,910.5 1605.4,897.1C1608.8,875.2 1607,863.9 1599,856C1594.3,851.3 1591.5,849.7 1576.5,843.5C1564.7,838.5 1557.9,834 1555.3,829.3C1554.1,827.2 1552.4,821.7 1551.5,817.1C1550.6,812.4 1549.1,807 1548.3,805.1C1543,792.8 1537.4,784.2 1529.2,775.6C1526.3,772.6 1524,769.7 1524,769.1C1524,768.5 1523.5,768 1522.8,768C1522.2,768 1521.9,767.8 1522.2,767.5C1522.4,767.2 1526.5,768.6 1531.1,770.4C1540.9,774.4 1551.8,777.2 1564,779C1585.9,782.1 1595,785.1 1600.8,791C1604.7,794.9 1608.5,801.9 1610.1,808.6C1613.2,820.9 1619.1,829.2 1627.5,833C1629.9,834.1 1635.7,835.9 1640.2,837C1659.1,841.5 1666.3,844.2 1674.9,849.8C1680.1,853.2 1685,855.4 1685,854.4C1685,853.8 1683.4,851.9 1678,845.8C1672.8,840 1665,835.8 1650.8,831.1C1635.6,826 1630,820.8 1630,811.3C1630,805.7 1626.7,794 1623.5,788.1C1617.1,776.5 1607.9,770.4 1588.5,765C1563.7,758.1 1562.4,757.7 1554.8,754C1548,750.6 1542.5,746.8 1527.4,734.5C1513,722.9 1503.4,718.6 1482.8,714.6C1476.8,713.4 1471.9,712 1471.8,711.5C1471.7,710.9 1473.6,709.5 1476,708.2C1481.4,705.5 1491.4,705.3 1508.2,707.5C1535.9,711.3 1539.6,713.6 1553,735.6C1563.3,752.6 1573.9,758.3 1607.5,765.2C1633.2,770.4 1652.5,778.3 1667.8,789.8C1671.8,792.8 1675.3,795 1675.7,794.7C1678.4,791.9 1666.7,778.5 1655.3,771.3C1646,765.5 1629.5,758.6 1610.7,752.6C1598.9,748.8 1594.8,746.9 1590.2,743.5C1583,738 1581.1,735.1 1575,720.6C1570.2,709 1567.8,705.1 1562.5,699.7C1555.4,692.7 1544.1,688.4 1528.8,687C1511.8,685.3 1495.1,687.3 1473.2,693.6C1461.5,697 1456.4,697.3 1457.3,694.7C1457.5,694 1459.3,693.2 1461.3,692.9C1463.3,692.6 1466.6,691.2 1468.7,689.7C1473.7,686.3 1476,685.4 1485.5,683.1C1498.2,680 1514.7,678.8 1528,680C1550.7,682 1560.7,686.1 1580,701.5C1593.9,712.6 1609.8,720 1627.5,723.7C1641.9,726.6 1642.9,725.6 1631.1,719.9C1617.4,713.4 1613.2,710.3 1601.5,698.6C1589.5,686.6 1576.2,676.2 1566.5,671.5C1551.2,663.9 1525.6,659.6 1508.5,661.8C1500.3,662.8 1483.5,666.9 1481,668.5C1480.5,668.8 1477.5,669.5 1474.3,670.1C1468.7,671.2 1460.5,675 1454.5,679.5C1447.5,684.7 1446,685 1433.9,684.1C1426.7,683.6 1421.7,683.6 1420.3,684.3C1417.5,685.5 1415,684.6 1415,682.3C1415,680.3 1409.6,674.8 1398,664.8C1393.9,661.3 1386.5,654.1 1381.5,648.8C1376.6,643.5 1371.9,639.2 1371.3,639.1C1370.6,639.1 1370,638.4 1370,637.7C1370,636.9 1369.1,635.3 1368,634C1365.6,631.3 1366.9,628.8 1369.5,631C1370.7,632 1371,632 1371,630.5C1371,628.9 1364.9,619.7 1353.8,604.5C1350.6,600.2 1348,595.7 1348,594.7C1348,593.7 1347.5,592 1347,590.9C1346.1,589.4 1346.3,589 1347.5,589C1348.4,589 1350,589.5 1351.1,590C1352.6,590.9 1353.2,590.7 1353.7,589.5C1354.5,587.3 1348.6,565 1345.4,558.3C1342.6,552.2 1342.6,552.5 1344.6,550.6C1346.8,548.3 1349.4,548.6 1352.8,551.5L1355.8,554L1357.3,549.8C1360.3,541.4 1364,526 1364,522.1C1364,519.2 1364.7,517.4 1366.9,515.1C1371.5,510.2 1373.8,511 1375,518L1375.6,521.5L1380.6,516.5C1390.1,506.9 1401.6,493.2 1403.9,488.8C1406.4,483.9 1409.3,482 1414.1,482C1417.5,482 1418.9,484.3 1417.2,487.1C1416.5,488.1 1416,489.6 1416,490.5C1416,492.1 1417.2,491.5 1434.5,481.6C1450.2,472.5 1451.5,471.7 1458.1,466.5C1466.6,459.8 1468,459.1 1471.7,459C1478.8,459 1479.8,461.2 1474.5,465.8C1472.6,467.5 1471.4,469.1 1471.8,469.3C1473.6,470.4 1521.1,454.8 1530.5,450.1C1539.5,445.5 1549.6,446.1 1547,451C1546.5,452 1544.7,453.3 1543,454C1539.5,455.5 1539.1,457 1542.3,457C1545.3,457 1590.7,452.2 1594.5,451.5C1596.2,451.1 1600.2,450.3 1603.5,449.5C1608.5,448.3 1610.3,448.3 1614.5,449.4C1620.7,451 1620.9,452.9 1615,455.1C1610.6,456.8 1610.6,456.8 1613,457.8C1614.4,458.4 1624.5,459.6 1635.5,460.5C1668.2,463.2 1676,464.3 1679.7,466.8C1682.6,468.6 1681.8,470 1677.7,470C1673.6,470 1671,471.5 1673.7,472.3C1674.7,472.6 1684.1,475.6 1694.5,479C1705,482.4 1716.7,486 1720.7,487C1729.5,489.2 1736.5,493.1 1734.8,494.8C1733.3,496.3 1725.6,496.3 1721.3,494.8C1717.7,493.5 1716,494.2 1718.1,496.2C1720.2,498.2 1738.6,510.2 1750.6,517.5C1756.5,521.1 1762,524.6 1762.7,525.2C1764.2,526.4 1764.5,531.6 1763,532.5C1762.5,532.8 1759.1,531.7 1755.4,530C1751.7,528.3 1748.2,527.1 1747.8,527.2C1746.6,527.6 1758.2,543.6 1766.2,552.6C1769.7,556.6 1775.3,562.1 1778.8,564.9C1785.7,570.7 1787.1,574.4 1782.6,575.6C1779.6,576.3 1772.6,573.3 1768.7,569.6C1767.2,568.2 1765.2,567 1764.4,567C1762.3,567 1763.2,570.8 1768.2,583.5C1773.6,597.1 1777.4,604 1783.1,610.6C1788.2,616.4 1789,618.9 1786.5,621C1783.4,623.6 1777.9,621.5 1772.3,615.7C1769.4,612.7 1766.8,610.5 1766.5,610.8C1765.5,611.8 1766,622.6 1767.6,631.5C1769.3,641.2 1772.6,650.6 1777.2,658.3C1779.5,662.2 1779.9,663.8 1779.4,667.1C1778.8,670.6 1778.5,671 1775.7,671C1773.5,671 1771.6,669.9 1768.5,666.7C1766.2,664.4 1763.8,661.6 1763.2,660.5L1762,658.5L1760.4,660.5C1759.1,662.2 1758.9,664.1 1759.5,672C1760.8,690.8 1764.9,705 1771.3,712.7C1776.4,719 1776.4,724.8 1771.2,726.4C1767.9,727.5 1763.1,724.1 1758.5,717.4C1754.8,712.1 1754.6,711.9 1753.7,714.1C1751.8,719.3 1755.7,741.4 1760.4,752.8C1764.9,763.7 1768.2,769 1774.2,775.7C1778.4,780.4 1779.1,781.6 1778.8,784.7C1778.2,792.1 1772.2,791.6 1764.3,783.5C1761.4,780.5 1759,777.7 1759,777.1C1759,776.5 1758.5,776 1757.9,776C1755.9,776 1757.6,785.8 1760.9,794.5C1767.5,811.6 1785.2,835.6 1795.9,842C1804.4,847.1 1808.1,850.1 1809.7,853.5C1811,856.3 1811.1,857.2 1810,858.5C1807.3,861.7 1801.4,860.2 1791.9,853.8C1783.6,848.3 1783.1,850.3 1790.6,860C1806.8,881.1 1836.9,902.6 1857.2,907.5C1866.5,909.7 1870,911.3 1873.5,915L1876.5,918.2L1874.1,920.1C1871.2,922.5 1868.3,922.5 1859.5,920.1C1848.6,917.2 1848.1,917.1 1848.6,918.4C1849.4,920.5 1862.6,928.8 1874,934.3C1898.4,946.1 1918,951.7 1938.4,952.9C1948.7,953.4 1952.4,954 1955.5,955.6C1960.7,958.3 1961,960.4 1956.8,962.6C1954.1,964.1 1951.3,964.4 1942.1,964.2C1935.2,964.1 1931,964.4 1931.6,965C1932.6,965.9 1944.2,970 1955,973.1C1980.3,980.5 2014.1,983.5 2027.8,979.5C2034.1,977.6 2040.1,978 2045,980.5C2051.7,984 2046.7,988.8 2033.5,991.5C2029.1,992.4 2025.1,993.5 2024.7,993.9C2024.3,994.4 2025.8,995 2028.2,995.3C2030.6,995.7 2037,996.6 2042.5,997.5C2048.5,998.4 2060.1,998.9 2071.7,999C2093.4,999 2106.7,997.1 2116,992.6C2123.2,989.1 2126.8,988.6 2131.1,990.4C2134.4,991.8 2136,993.6 2136,996C2136,999.1 2128.1,1004.1 2119.3,1006.6C2118.6,1006.8 2118,1007.3 2118,1007.8C2118,1010.1 2135.2,1010.7 2152.1,1008.9C2171.8,1006.9 2186.3,1002.7 2194.3,996.6C2199,993 2202.8,992.5 2206.8,994.9C2210.4,997.2 2210.8,999.4 2208.3,1003C2206,1006.4 2204.3,1007.7 2198.8,1010.4C2195.5,1012 2194.4,1013 2195,1014C2195.6,1015 2198.4,1015.2 2208.3,1014.7C2233.7,1013.4 2247.7,1009.9 2257.6,1002.4C2263.2,998.1 2271,1000 2271,1005.8C2271,1008.6 2266.6,1013.6 2261.2,1017L2256.7,1019.8L2260.5,1021C2263.2,1021.9 2268.1,1022.1 2276.9,1021.7C2290.9,1021.1 2294.6,1020.2 2303.7,1015.8C2310.9,1012.3 2314.6,1012.5 2315.6,1016.5C2316.5,1020 2313.1,1024.2 2306.4,1028.1C2300.1,1031.6 2300.3,1032.8 2307.5,1034.8C2316.9,1037.4 2329.1,1038.3 2338,1037C2347.5,1035.6 2351,1036.4 2351,1040C2351,1043.6 2345.1,1046.7 2332.5,1049.5L2329.5,1050.2L2332,1052.1C2339.5,1057.8 2357.4,1065.4 2367.2,1067C2374.1,1068.1 2376.2,1069.4 2375.8,1072.4C2375.3,1076 2368.3,1077.6 2359.8,1076C2349.9,1074.1 2349.5,1075.3 2357,1083.3C2363.9,1090.7 2373.9,1098.5 2382,1102.7C2387.9,1105.8 2389.7,1107.8 2388.6,1110.5C2387.6,1113.2 2378.8,1112.1 2370.7,1108.2C2367.1,1106.4 2363.6,1105 2363,1105C2359.4,1105 2369.1,1124.4 2377.6,1134.5C2381.2,1138.6 2384.5,1142 2385,1142C2386.4,1142 2388.1,1145.7 2387.4,1147.4C2386.5,1149.7 2380.4,1149.4 2376.1,1146.8C2374.1,1145.7 2370.4,1142.6 2367.8,1140.1C2364.1,1136.7 2362.7,1135.9 2361.8,1136.8C2358.7,1139.9 2363.8,1163.9 2369.7,1173.8C2373.8,1180.6 2373.3,1182.6 2367.4,1182.4C2364.3,1182.3 2362.9,1181.5 2360.3,1178.5C2358.5,1176.4 2356.1,1172.6 2354.9,1169.9C2352.2,1164.1 2349.6,1163 2347.5,1166.9C2346.7,1168.5 2344.9,1174.8 2343.5,1181.1C2341.3,1190.6 2340.9,1194.3 2341.2,1203.5L2341.5,1214.4L2338.8,1216C2336.3,1217.3 2335.7,1217.3 2333.3,1216C2328.8,1213.5 2326.7,1208.6 2326.2,1199.8C2325.9,1195.5 2325.4,1191.7 2325,1191.5C2323.6,1190.6 2319.3,1194.9 2314.3,1202.2C2305.2,1215.4 2299.2,1229.7 2298.3,1240.5C2297.7,1247.5 2295.2,1251 2290.8,1251C2283.5,1251 2281.6,1243.1 2284.6,1226.2C2285,1224.1 2284.8,1223 2284.1,1223C2282.1,1223 2265.9,1239.3 2259.8,1247.5C2252.4,1257.5 2247.6,1267.5 2246,1276.3C2245.3,1280 2244.1,1283.8 2243.3,1284.6C2239.4,1288.5 2231.9,1286.9 2230.1,1281.8C2228.4,1277.1 2228.8,1272.7 2231.4,1265.5C2233,1261 2233.4,1259 2232.5,1259C2228.1,1259 2206.7,1280.1 2198.6,1292.5C2191.6,1303.1 2190.4,1305.4 2188,1314.1C2186.9,1318.2 2185.5,1321.7 2184.9,1321.9C2184.3,1322.1 2182.9,1323.1 2182,1324C2177,1329 2172.6,1328.8 2170.4,1323.4C2168.5,1318.8 2168.6,1317 2171.5,1308.3C2172.9,1304.1 2173.9,1300.5 2173.6,1300.3C2172.6,1299.3 2163,1307.3 2154.6,1316.1C2137.9,1333.6 2128.8,1349.4 2126.5,1364.7C2125.4,1372.4 2124.9,1373.7 2122.1,1376.2C2119.8,1378.3 2117.9,1379 2115.1,1379C2111.7,1379 2110.9,1378.5 2109.1,1375.6C2106.5,1371.4 2106.5,1368.5 2109.1,1359.8C2110.2,1356 2110.9,1352.3 2110.7,1351.7C2110.1,1350.1 2097.5,1363.1 2090.6,1372.3C2082.6,1383 2077.4,1392.6 2073.9,1402.6C2071.1,1410.4 2070.7,1412.9 2070.6,1423.4L2070.4,1435.3L2067.2,1438.1C2063.5,1441.4 2060.1,1441.8 2056.3,1439.3C2052.7,1436.9 2051,1432.2 2051,1424.8C2051,1415.9 2050,1415 2046.1,1419.7C2042.5,1423.9 2033.1,1442.8 2029.2,1453.5C2025.2,1464.5 2025,1483.5 2028.8,1492.2C2034.8,1505.9 2018.9,1513.4 2011.1,1500.6C2010,1498.9 2008.6,1494.7 2008,1491.2C2007.3,1487.8 2006.4,1484.7 2005.9,1484.4C2004.8,1483.8 2001.3,1490.7 1998.4,1499.3C1995.1,1509 1993.7,1520.2 1994.2,1533.2C1994.7,1545.4 1996.2,1550.2 2002.3,1558.7C2004,1561.1 2005.1,1563.3 2004.7,1563.6C2004.4,1564 2004.5,1565.1 2005,1566.1C2005.7,1567.4 2005.6,1568.1 2004.6,1568.7C2003.8,1569.1 2003,1570.6 2002.8,1571.9C2002.4,1575.2 2000,1576.4 1995.5,1575.6C1990.9,1574.7 1982.9,1567.1 1980.9,1561.7C1979.6,1557.9 1976.7,1556.7 1975.7,1559.4C1974.3,1562.9 1973.8,1584.8 1975,1591C1977.5,1605.2 1981.9,1615.6 1988.8,1624.3C1992.5,1628.9 1993.3,1632 1992.2,1638C1991.6,1641.9 1991.1,1642.5 1988.8,1642.8C1984.6,1643.3 1978.6,1639.6 1972.4,1632.5C1969.2,1628.9 1966.3,1626 1965.8,1626C1963.3,1626 1965.9,1646.4 1970.1,1659.1C1971.9,1664.4 1973,1669.5 1972.7,1670.4C1972.3,1671.3 1970.6,1672.8 1968.8,1673.8C1964.3,1676.2 1959.1,1681.6 1956.9,1686.4C1950.7,1699.6 1937.5,1716.4 1927.2,1724.4C1921,1729.1 1913,1733 1909.6,1733C1908.4,1733 1906.5,1733.7 1905.4,1734.5C1899,1739.4 1870,1731.7 1848.5,1719.3C1831.5,1709.5 1817.9,1697.7 1798,1675.4C1784.4,1660.1 1777.6,1651 1775.4,1644.9C1773.4,1639.2 1772.3,1620.2 1773.9,1617.2C1774.5,1616 1777.2,1613.6 1779.8,1611.9C1782.4,1610.1 1786.5,1606.8 1789,1604.5C1791.5,1602.2 1796.3,1598.7 1799.6,1596.7C1803,1594.6 1806.3,1592.4 1806.9,1591.6C1807.6,1590.8 1809.6,1589.8 1811.3,1589.4C1816.5,1588.3 1821.9,1583.9 1823,1580C1824,1576.1 1823.3,1572.4 1820,1564C1815,1551.4 1811.7,1546 1806.2,1540.9C1800.9,1536.1 1796.3,1533.4 1795.2,1534.4C1795,1534.7 1795.8,1537 1797,1539.5C1800.4,1546.5 1800.8,1555.7 1798,1561.4C1796.6,1564.3 1796,1566.9 1796.4,1568.5C1797,1570.7 1796.4,1573.1 1793.6,1578.9C1792.9,1580.5 1790.1,1582.4 1786,1584.3C1782.5,1585.9 1778,1588.5 1776,1590.1C1770.1,1595 1768.5,1593.6 1770.6,1585.5C1771.4,1582.7 1772,1577.6 1772,1574C1772,1570.4 1772.6,1566.4 1773.3,1564.9C1775.6,1560.6 1778,1552.8 1778,1549.8C1778,1546 1774.6,1536.6 1772.1,1533.4C1770.5,1531.4 1770.2,1529.9 1770.6,1527.1C1771,1524.1 1770.7,1523 1768.4,1520.6C1766.9,1519.1 1763.6,1516.8 1761.1,1515.6C1758.6,1514.5 1755.2,1512.6 1753.5,1511.5C1743.6,1504.7 1715.1,1497.9 1702.6,1499.4C1697.2,1500 1693.8,1502 1698,1502C1709.5,1502.1 1731.6,1517.7 1735.2,1528.1C1736.1,1530.6 1738.1,1534.1 1739.9,1536C1741.6,1537.9 1743,1540 1743,1540.6C1743,1541.3 1744.1,1543.1 1745.4,1544.7C1749.6,1549.7 1749.6,1551.6 1745.5,1557.6C1742,1562.6 1741.7,1563.6 1741.9,1569.4C1742,1575 1741.6,1576.7 1738.3,1583.1C1733.5,1592.3 1731.1,1593.3 1728.6,1586.8C1727.6,1584.4 1725.7,1580.8 1724.4,1578.7C1723,1576.5 1721.4,1572.1 1720.9,1568.7C1720.3,1565.3 1719,1560.5 1717.9,1558C1715.6,1552.7 1707.3,1544.6 1702.5,1542.9C1700.1,1542 1698.9,1540.8 1698.3,1538.6C1696.8,1533.3 1691.4,1531.1 1672.5,1528C1660,1525.9 1638.2,1527.3 1622.8,1531.1C1610.4,1534.2 1611.2,1535.6 1625.8,1536.2C1642.3,1536.9 1658.4,1542.4 1665.5,1549.7C1667.2,1551.5 1669.2,1553 1669.8,1553C1670.4,1553 1672.8,1554.8 1675.1,1556.9C1678.4,1559.9 1680.4,1560.9 1683.9,1561.3C1690.1,1562 1691.2,1563.8 1690.4,1572.2C1689.8,1578.4 1689.9,1579.1 1692.5,1582.4C1696.2,1587.3 1697.9,1592.4 1698,1599.2C1698,1604.5 1697.9,1604.8 1695.8,1604.3C1691.4,1603.2 1686.4,1598.1 1682.5,1590.9C1678.1,1583 1672.7,1577.9 1664.5,1574.3C1652.9,1569.2 1650.3,1567.9 1647,1565.4L1643.5,1562.8L1627,1563.3C1615.4,1563.7 1607.7,1564.5 1601.1,1565.9C1585.7,1569.4 1564,1578.7 1564,1581.7C1564,1583.3 1563.9,1583.3 1569.1,1581.3C1572.6,1580 1577,1579.6 1590,1579.6C1607.5,1579.5 1612.4,1580.3 1621.2,1584.7C1623.8,1585.9 1627.3,1587 1628.9,1587C1630.5,1587 1633.1,1588.1 1634.7,1589.4C1639.1,1593 1641.5,1594 1646.2,1594C1651.6,1594 1652.4,1594.6 1653.9,1599.5C1656.3,1607.3 1657.2,1608.8 1661.6,1612.1C1665,1614.6 1667.2,1617.7 1671,1624.9C1674.7,1632.1 1676.8,1635.1 1679.7,1637C1681.7,1638.4 1687.2,1642.4 1691.8,1645.8C1696.8,1649.6 1704.2,1654 1710.1,1656.6C1721.8,1661.8 1726.3,1664.5 1730.8,1669.3C1734.3,1672.9 1735.8,1678.5 1734.6,1683.4C1733,1689.9 1721.7,1696.4 1702.6,1701.9C1696.5,1703.6 1689.3,1706.3 1686.4,1708C1683.6,1709.6 1681,1710.6 1680.6,1710.3C1680.3,1710 1677.1,1710.5 1673.4,1711.5C1661.6,1714.7 1643.2,1711.9 1632.8,1705.4C1627.4,1701.9 1625.4,1702.4 1627.7,1706.7C1630.5,1711.6 1636,1717.8 1641,1721.4C1650.4,1728.3 1662,1733.3 1666,1732.3C1667.6,1731.9 1667.9,1732.1 1667.4,1733.4C1666.9,1734.7 1667.5,1735 1670.8,1735C1673.1,1735 1675.9,1735.4 1677.2,1735.9C1678.5,1736.3 1682.2,1737 1685.5,1737.4L1691.5,1738L1697.7,1732.7C1701.1,1729.9 1705.6,1726.6 1707.7,1725.5C1709.8,1724.4 1717.5,1719.6 1724.9,1714.7C1741,1704.2 1748.6,1701.4 1760.1,1701.7C1775.3,1702.1 1784.9,1709.7 1795,1729.4C1799.1,1737.4 1802.7,1742.5 1809.8,1750.5C1823.8,1766.3 1836,1775.4 1851.3,1781.5C1858,1784.2 1860,1786.1 1860,1789.8C1860,1790.9 1861,1794.3 1862.1,1797.4C1867,1810.1 1876.3,1816.1 1894.5,1818C1903.9,1819.1 1906.4,1819.7 1911.8,1822.7C1915.2,1824.6 1918,1826.5 1918,1826.9C1918,1827.4 1920.9,1829 1924.5,1830.6C1932.2,1833.8 1940.8,1834.3 1945.5,1831.7C1947.2,1830.8 1949.7,1829.5 1951.3,1828.8C1952.8,1828.1 1954.3,1826.7 1954.6,1825.7C1955.9,1821.7 1963.3,1820.8 1970,1823.7C1972.5,1824.8 1977.9,1826.8 1982,1828.2C2001.3,1834.7 2001.8,1835 2005.6,1840.2C2007.6,1842.8 2010.1,1845.5 2011.1,1846.1C2012.1,1846.6 2013,1847.5 2013,1848.1C2013,1849.9 2024.6,1863.5 2031.2,1869.5C2045.2,1882.3 2057.4,1887.8 2074.9,1889.4C2078.6,1889.8 2081.1,1890.6 2082.7,1892.1C2085.6,1894.9 2085.6,1896.1 2082.4,1899.9C2077.2,1906.2 2064,1907.5 2049.2,1903.4C2045.8,1902.5 2042.7,1902 2042.3,1902.3C2041.1,1903.5 2043.7,1907.4 2050.4,1914.7C2058.9,1923.9 2067.4,1930.3 2077.5,1935.2C2087.3,1939.9 2094.8,1941.2 2106.1,1940.4C2113.3,1939.9 2114.9,1940 2116.3,1941.5C2118.8,1943.9 2118.4,1945.4 2114.6,1948.8C2108.9,1953.8 2099.3,1956.5 2086.8,1956.5C2081,1956.5 2075.9,1956.8 2075.5,1957.2C2074.5,1958.2 2083.9,1967.4 2090.1,1971.3C2099.8,1977.4 2104.6,1978.5 2121.3,1978.3C2136,1978.1 2136.1,1978.1 2135.8,1980.3C2135.1,1985.2 2114.7,1991.9 2100.5,1992C2094.6,1992 2093.3,1993.2 2095.6,1996.3C2100.1,2002.3 2112,2005.3 2130,2004.7C2137,2004.5 2138.5,2004.8 2138.5,2006C2138.5,2008.2 2130.9,2009.8 2114.2,2011.2C2102.7,2012.1 2100,2012.6 2100.2,2013.8C2100.4,2014.7 2106.4,2017.3 2115.4,2020.4C2130.8,2025.7 2133.5,2027.5 2131,2030.5C2129.8,2031.9 2128.3,2032.2 2122.5,2031.8C2116.9,2031.4 2113.5,2030.4 2106.4,2027.2C2101.4,2024.9 2097.1,2023 2096.7,2023C2096.4,2023 2095.5,2023.6 2094.7,2024.4C2091,2028.2 2097.4,2044 2106.8,2054.1C2112.5,2060.3 2112.9,2061.4 2110.1,2063C2107.2,2064.5 2104.4,2064.2 2099.8,2061.9C2095.8,2059.8 2084.6,2049.6 2083.9,2047.3C2083.2,2045.1 2079,2047.1 2078.2,2049.9C2077.8,2051.3 2077.5,2058.1 2077.6,2065C2077.6,2074.5 2078.1,2078.6 2079.5,2082C2082.2,2089 2082,2092.2 2078.7,2093.4C2073.4,2095.3 2067.3,2088.3 2063.7,2076.3C2061,2067 2059.4,2066.8 2054.6,2075C2049.2,2084.1 2044,2099.1 2042.8,2108.9C2042,2115.3 2041.2,2118 2039.8,2119.2C2037.1,2121.6 2035.6,2121.5 2032.5,2118.7C2030.3,2116.8 2029.8,2115.4 2029.3,2109.4C2029,2105.1 2029.2,2100.2 2030,2097.1C2030.7,2094.2 2031,2091.7 2030.7,2091.4C2029.4,2090 2025.4,2092.7 2019.4,2098.8C2010.1,2108.3 2004.4,2116.6 1997.5,2130.4C1990.9,2143.6 1988.8,2145.6 1983.4,2143.1C1980.9,2142 1980.8,2141.6 1981.3,2136.7C1981.7,2132.2 1984.8,2124 1989.6,2114.9C1990.7,2112.6 1990.7,2112.1 1989.6,2111.7C1987.9,2111 1970.9,2120.5 1969.6,2122.8C1969.1,2123.6 1968.7,2131.8 1968.5,2140.9C1968.4,2150 1968,2158.3 1967.6,2159.3C1967.1,2160.2 1967,2161.9 1967.3,2163C1967.8,2165 1966.3,2166 1962.5,2166C1961.3,2166 1959.7,2166.7 1959,2167.5C1957.8,2169 1954.8,2169.5 1953.8,2168.5C1953.5,2168.2 1953.9,2164.7 1954.6,2160.7C1956.3,2152.1 1957.5,2134.8 1956.7,2132.6C1955.6,2129.9 1953.2,2131.9 1950.6,2137.6C1947.2,2144.9 1939.8,2156.3 1933.7,2163.3C1925.1,2173.2 1911.7,2180.6 1894.3,2185C1884.1,2187.6 1879.8,2187.6 1880.7,2185.2C1881.1,2184.3 1881.7,2183.3 1882.1,2183C1882.5,2182.7 1887.2,2178.4 1892.6,2173.5C1905.9,2161.2 1913.1,2152.2 1925.3,2132.5C1937,2113.6 1942.1,2100.1 1944,2083.4C1946.2,2064.3 1941.3,2048.9 1929.1,2037C1921.2,2029.3 1910.6,2023.1 1896.3,2017.8C1886.6,2014.2 1877,2012 1877,2013.3C1877,2013.6 1879.2,2016.1 1881.9,2018.8C1890.7,2027.6 1895,2039.2 1895,2054C1895,2064.5 1893.1,2072 1888,2082.5C1879.1,2100.5 1865.6,2113.2 1844.4,2123.6C1826.2,2132.6 1819.9,2132.1 1833.6,2122.8C1841.9,2117.2 1848.2,2110.5 1851.8,2103.6C1853.8,2099.6 1854.5,2096.6 1854.8,2089.9C1855.2,2081.9 1855,2080.8 1852.5,2076.1C1849.3,2070.3 1845.4,2067 1837.3,2063.3C1831.3,2060.5 1818,2058.8 1818,2060.8C1818,2061.4 1819.4,2064.1 1821,2066.7L1824,2071.6L1822.1,2077.7C1821,2081.1 1819,2086.2 1817.7,2089.2C1816.3,2092.1 1814.9,2095.8 1814.6,2097.3C1813.6,2101.7 1806.1,2108.4 1799.4,2111C1793.1,2113.3 1786.9,2114 1786.3,2112.5C1786.1,2111.9 1784.6,2109.2 1783,2106.3C1779.3,2099.9 1772.3,2095.2 1769.1,2097C1767.9,2097.6 1767,2098.9 1767,2099.9C1767,2100.9 1765.3,2104.3 1763.2,2107.6C1754.9,2120.3 1739,2131.4 1726,2133.6C1724.1,2133.9 1720.9,2134.8 1719,2135.5C1713.8,2137.5 1702.6,2139.8 1692.5,2141C1687.5,2141.6 1680.7,2142.7 1677.2,2143.4C1672.3,2144.4 1670.6,2144.4 1669.3,2143.5C1667.1,2141.9 1668.2,2139.4 1671.6,2138.6C1676.1,2137.4 1684.8,2133.1 1688.1,2130.2C1689.8,2128.8 1692.2,2126.1 1693.5,2124.1C1697.3,2118.1 1725.2,2104.8 1738.8,2102.5C1752,2100.3 1731.9,2096 1708.3,2096C1696.2,2096 1677.2,2098.1 1665.8,2100.6C1661.1,2101.7 1661.3,2098.8 1666.7,2090.3C1681.8,2066.3 1685.3,2045.1 1677.8,2022.5C1671.6,2004.1 1659.5,1989.9 1642.8,1981.4C1627.9,1973.8 1605.3,1969.9 1615.9,1976.7C1623.8,1981.7 1632.2,1991.4 1636.9,2000.9C1645.8,2018.6 1644.8,2046.7 1634.6,2066.8C1624.6,2086.4 1611.3,2099.6 1590.7,2110.4C1578.5,2116.8 1575.1,2116.6 1573.5,2109C1570.8,2096.4 1556.6,2079.8 1542.3,2072.6C1532.6,2067.8 1512,2063 1512,2065.6C1512,2065.9 1514,2068.4 1516.5,2071.2C1526.6,2082.5 1530.6,2095.1 1526.5,2103.1C1520.3,2115.1 1507.3,2122.4 1487.1,2125.1C1479.2,2126.2 1475.1,2126 1463.5,2124.2L1458.5,2123.5L1467.3,2122.3C1482.1,2120.2 1489.9,2114 1490.8,2103.5C1491.2,2098.1 1489.7,2092 1487.8,2092C1487.3,2092 1484.8,2094.3 1482.2,2097.1C1475.9,2104 1470.6,2106.3 1461,2106.2C1453.5,2106.2 1438.8,2104.3 1424.2,2101.4C1420,2100.6 1412.9,2099.2 1408.5,2098.4C1397.3,2096.3 1373.2,2095.5 1364.5,2096.9C1350.8,2099.3 1349,2099.3 1341.4,2097.5C1328.1,2094.4 1313.1,2096.8 1306.3,2103.2C1304,2105.3 1302.9,2108.6 1301.5,2116.3C1301,2119.3 1300.5,2120 1298.6,2120C1297.4,2120 1295.1,2118.6 1293.4,2116.9C1290,2113.3 1286.5,2111.2 1279,2108.5C1274.6,2106.8 1273.1,2105.7 1271.3,2102.4C1268.5,2097.4 1258.6,2087.5 1253.4,2084.6C1250.6,2083.1 1248.7,2080.9 1246.8,2077C1243.3,2070.2 1238.9,2065.6 1232.5,2062.2C1228.8,2060.1 1226.8,2058.1 1224.3,2053.8C1220.8,2047.8 1215.5,2042.9 1208,2038.7C1204.5,2036.7 1203.3,2035.4 1202.4,2032.3C1199.2,2021.3 1191,2010.8 1179.9,2003.4C1176.1,2000.9 1173,1998.4 1173,1997.9C1173,1996.1 1178.5,1994.8 1184.2,1995.2C1191.2,1995.7 1201,2000.4 1213,2009C1255.2,2039.1 1277.3,2050.7 1305.2,2057.5C1327,2062.9 1345.6,2061.8 1363.6,2054.3C1377.7,2048.4 1388.6,2039.8 1398.5,2027C1410.7,2011 1414,1996.4 1414,1957.9C1414,1940.1 1414.3,1935.1 1415.9,1929.2C1418.9,1917.7 1423,1912.1 1431,1908.3C1433.4,1907.2 1433.4,1907.2 1429.9,1907.1C1425.5,1907 1419.2,1911.3 1415.6,1916.7C1410.6,1924.5 1408.9,1932.2 1407.9,1951.5C1406.1,1990.8 1403.7,2001.7 1393.8,2016.3C1376.8,2041.4 1349.7,2053.9 1322,2049.4C1294,2044.9 1266.4,2032.4 1222,2003.9C1202.3,1991.2 1189.9,1986.9 1178.9,1988.9C1175.5,1989.5 1170.8,1991.1 1168.5,1992.5C1166.42,1993.71 1163.67,1994.7 1161.87,1994.94ZM1477.9,728.2C1487.5,733.7 1507.1,751.3 1506.9,754.3C1506.9,755.2 1506.7,755.2 1506.3,754.2C1506.1,753.6 1505.4,753 1504.8,753C1503,753 1465.1,730.6 1464.5,729.3C1462.6,724.1 1469.8,723.6 1477.9,728.2Z" style="fill:rgb(237,30,36);fill-rule:nonzero;"/>
        </g>
    </g>
</svg>
