<?xml version="1.0" encoding="UTF-8" standalone="no"?>
<!DOCTYPE svg PUBLIC "-//W3C//DTD SVG 1.1//EN" "http://www.w3.org/Graphics/SVG/1.1/DTD/svg11.dtd">
<svg width="100%" height="100%" viewBox="0 0 605 951" version="1.1" xmlns="http://www.w3.org/2000/svg" xmlns:xlink="http://www.w3.org/1999/xlink" xml:space="preserve" xmlns:serif="http://www.serif.com/" style="fill-rule:evenodd;clip-rule:evenodd;stroke-linejoin:round;stroke-miterlimit:2;">
    <g id="Artboard1" transform="matrix(1,0,0,0.882661,-1.02839,-1.2147)">
        <rect x="1.028" y="1.376" width="604.061" height="1076.93" style="fill:none;"/>
        <g id="Phoenix" transform="matrix(0.477669,0,0,0.539285,-151.251,-186.358)">
            <path d="M869.899,1546.22C868.962,1536.02 955.253,1467.19 960.041,1462.8C961.889,1461.11 986.538,1443.64 989.472,1443.45C993.619,1443.31 991.558,1454.98 991.8,1465.12C992.096,1474.23 994.977,1485.74 999.319,1494.28C1008.56,1512.62 1017.55,1528.48 1022.72,1535.87C1026.08,1540.65 1051.16,1564.73 1054.54,1562.37C1056.99,1560.65 1035.37,1536.54 1032.44,1528.73C1031.11,1525.25 1028.6,1517.08 1027,1510.51C1024.03,1498.75 1023.93,1498.32 1023.74,1479.23C1023.68,1466.59 1024,1457.81 1024.73,1453.83C1027.08,1441.01 1028.05,1436.25 1029.58,1430C1033.63,1413.69 1036.47,1399.66 1037.42,1391.63C1038.57,1381.78 1039.8,1379.76 1044.9,1379.58C1049.3,1379.43 1052.4,1384.31 1052.64,1391.78C1052.71,1393.76 1053.64,1398.37 1054.8,1402.12C1055.95,1405.77 1057.44,1411.74 1058.25,1415.24C1058.97,1418.74 1060.71,1424.53 1061.95,1428.01C1063.27,1431.49 1065.27,1436.93 1066.32,1439.99C1067.37,1443.05 1069.31,1446.85 1070.48,1448.36C1075.8,1455.05 1075.49,1458.76 1068.98,1466.04C1064.05,1471.55 1062.43,1474.79 1060.7,1482.67C1058.12,1493.95 1061.83,1515.59 1067.08,1514.64C1070.26,1514.1 1070.26,1494.99 1073.81,1486.95C1076.46,1480.75 1079.54,1477.03 1083.3,1475.52C1088.67,1473.27 1098.26,1480.93 1103.63,1491.76C1106.22,1497.09 1106.42,1497.77 1106.03,1504.32C1105.59,1512.25 1104.34,1516.25 1101,1519.97C1096.41,1525.04 1085.67,1539.53 1088.47,1540.46C1090.92,1541.32 1104.34,1532.33 1106.11,1530.98C1107.13,1530.25 1109.7,1526.89 1111.92,1523.46C1115.3,1518.18 1116.22,1517.29 1118.13,1517.4C1121.68,1517.7 1123.92,1522.79 1124.31,1531.89C1124.75,1540.39 1118.66,1559.67 1122.62,1559.11C1125.38,1558.75 1132.81,1540.62 1135.51,1533.22C1136.54,1530.52 1136.73,1528.36 1136.08,1524.17C1134.72,1514.33 1133.33,1508.78 1130.92,1503.96C1129.16,1500.41 1128.36,1496.91 1127.61,1489.89C1126.66,1481.75 1126.26,1480.21 1124,1477.2C1122.64,1475.35 1119.09,1472.38 1116.18,1470.76C1113.27,1469.06 1108.25,1466.14 1104.9,1464.19C1091.76,1456.48 1083.85,1441.87 1078.12,1414.55C1073.82,1393.97 1072.7,1383.43 1074.14,1377.19C1076.86,1365.05 1079.03,1362.65 1087.98,1361.39C1091.08,1360.94 1094.61,1360.47 1095.91,1360.43C1098.84,1360.24 1103.01,1363.36 1104.95,1367.25C1105.79,1368.94 1107.5,1371.2 1108.84,1372.36C1123.79,1385.26 1143.87,1404.51 1143.92,1405.97C1144.01,1408.81 1141.75,1413.88 1138.75,1417.42C1134.84,1422.03 1133.09,1429.49 1133.91,1438.66C1134.32,1443.29 1135.13,1446.88 1136.32,1449.07C1137.89,1452.03 1144.34,1466.67 1146.58,1466.33C1150.63,1465.76 1146.8,1449.57 1147.38,1445.93C1147.66,1444.12 1149.5,1439.32 1151.53,1435.21C1153.56,1431.1 1155.83,1426.63 1156.39,1425.32C1158.83,1420.33 1162.17,1419.44 1169.94,1421.49C1174.12,1422.55 1181.79,1426.93 1181.83,1428.22C1181.84,1428.48 1183.65,1431.16 1185.83,1434.1C1192.88,1443.74 1192.98,1443.91 1193.24,1457.32C1193.44,1468.84 1193.38,1469.53 1191.24,1473.13C1190.02,1475.24 1187.76,1477.73 1186.32,1478.72C1184.03,1480.18 1183.54,1481.06 1183.62,1483.46C1183.67,1485.01 1173.55,1493.43 1174.53,1494.51C1176.06,1496.27 1187.3,1490.13 1190.55,1489.07C1195.17,1487.53 1201.08,1480.44 1204.54,1472.32C1207.12,1466.47 1209.53,1463.63 1211.63,1464.25C1212.15,1464.4 1213.61,1466.76 1214.83,1469.56C1219.29,1479.12 1219.98,1481.93 1219.66,1487.88C1219.36,1492.11 1207.18,1500.09 1208.17,1501.26C1209.43,1502.77 1222.19,1496.65 1225.44,1495.42C1227.41,1494.75 1229.36,1493.65 1229.86,1492.94C1231.1,1491.35 1232.78,1481.92 1232.71,1477.02C1232.6,1473.5 1226.19,1454.54 1221.14,1442.84C1220.11,1440.56 1218.84,1435.96 1218.3,1432.62C1217.03,1425.61 1213.78,1418.76 1209.86,1415.11C1207.19,1412.71 1204.38,1411.35 1187.98,1404.52C1177.73,1400.32 1161.8,1389.44 1152.52,1380.47C1148.86,1376.9 1143.23,1371.51 1140.02,1368.44C1133.6,1362.38 1131.13,1358.34 1132.52,1355.97C1134.57,1352.46 1138.76,1351.02 1148.17,1350.52C1154.91,1350.2 1159.47,1349.44 1165.98,1347.58C1170.78,1346.12 1175.41,1344.92 1176.36,1344.89C1182.23,1344.69 1215.87,1331.13 1227.76,1324.26C1240.91,1316.58 1243.54,1314.94 1245.56,1313.32C1246.75,1312.42 1251.47,1309.61 1254.02,1307.26C1259.78,1301.93 1273.87,1289.24 1280.16,1281.32C1285.24,1274.92 1289.39,1264.12 1291.74,1259.76C1292.58,1258.2 1293.44,1256.64 1294.27,1255.11C1295.09,1253.59 1296.08,1252.15 1296.72,1250.55C1297.44,1248.75 1297.78,1245.96 1298.59,1244.29C1299.4,1242.63 1300.26,1239.68 1300.54,1237.78C1300.83,1235.87 1302.07,1234.26 1302.7,1232.45C1303.88,1229.13 1308.39,1218.58 1307.59,1217.83C1307.32,1217.58 1309.32,1212.49 1309.92,1209.75C1310.74,1206.05 1311.75,1199.94 1312.49,1195.64C1313.16,1191.76 1313.85,1187.87 1314.36,1183.96C1314.98,1179.3 1316.49,1173.11 1316.17,1167.65C1315.84,1161.97 1313.58,1155.05 1312.39,1149.89C1311.37,1145.46 1309.04,1144.1 1309.02,1136.67C1309.01,1130.91 1307.37,1127.53 1306.2,1124.39C1305.3,1121.95 1302.96,1119.38 1302.01,1117.82C1301.47,1116.92 1300.57,1115.98 1300.54,1115.04C1300.51,1114.09 1293.66,1107.52 1290.23,1103.96C1286.87,1100.46 1279.97,1094.16 1279.95,1093.65C1279.94,1093.22 1277.34,1088.72 1275.49,1086.67C1269.16,1079.65 1263.36,1072.64 1242,1051.54C1239.23,1048.8 1235.46,1044.45 1233.56,1041.94C1231.75,1039.34 1229.58,1036.49 1228.68,1035.57C1226.62,1033.24 1220.38,1022.19 1217.95,1016.6C1216.91,1014.05 1215.25,1008.09 1214.23,1003.39C1212.68,995.449 1212.63,994.16 1213.57,985.527C1214.18,980.431 1215.45,974.365 1216.33,972.098C1219.13,965.206 1225.27,959.573 1230.1,959.404C1232.52,959.32 1237.79,961.802 1241.17,964.695C1247.84,970.311 1262.11,975.49 1270.14,975.21C1275.15,975.035 1289.03,978.937 1297.99,983.183C1302.12,985.103 1309.13,993.46 1310.23,997.808C1311.71,1003.61 1310.46,1014.5 1314.54,1014.96C1317.06,1015.22 1320.84,1005.09 1321.43,1004.47C1322.1,1003.76 1322.38,999.105 1322.3,991.452C1322.3,980.787 1321.97,978.562 1319.73,970.899C1317.79,964.258 1317.14,960.238 1316.91,953.107C1316.62,944.344 1314.49,931.861 1310.93,918.309C1308.76,909.784 1306.88,905.376 1303.34,900.253C1301.71,897.816 1300.34,895.541 1300.33,895.198C1300.21,891.761 1274.17,864.888 1266.14,860.007C1264.38,858.951 1259.53,855.938 1255.2,853.336C1250.96,850.646 1245.93,847.381 1243.98,845.987C1233.7,838.26 1221.14,824.335 1216.98,816.051C1208.47,799.145 1207.44,793.934 1210.23,781.365C1212.04,773.217 1220.88,759.118 1217.13,758.303C1213.83,757.644 1200.41,771.817 1196.87,777.359C1192.75,783.867 1191.35,788.733 1191.59,795.95C1191.81,802.823 1193,807.426 1195.65,811.978C1196.85,814.087 1197.44,816.388 1197.35,818.8C1197.2,822.245 1197.03,822.509 1194.62,822.851C1192.56,823.096 1190.89,822.294 1186.72,819.085C1183.79,816.864 1178.75,813.342 1175.48,811.306C1168.5,806.818 1165.01,803.242 1164.92,800.235C1164.88,799.032 1165.74,796.164 1166.79,793.891C1170.58,785.673 1181.53,766.971 1176.51,767.146C1174.1,767.23 1161.13,782.304 1156.57,788.14C1154.74,790.44 1153.98,790.897 1151.88,790.454C1150.58,790.155 1148.74,789.36 1147.85,788.702C1145.54,786.805 1140.91,777.419 1139.23,770.941C1137.07,763.017 1137.69,758.007 1141.79,751.069C1145.55,744.573 1165.64,722.848 1162.34,719.694C1159.66,717.121 1136.7,735.764 1132.36,737.722C1128.69,739.484 1120.53,748.972 1118.36,754.123C1116.84,757.788 1116.8,759.252 1117.41,767.659C1118.35,777.948 1120.26,783.3 1125.95,790.929C1129.48,795.794 1138.71,805.707 1142.36,808.677C1148.67,813.875 1165.9,825.402 1172.33,828.704C1175.32,830.234 1189.91,837.638 1197.39,841.419C1199.68,842.63 1202.66,843.988 1210.12,847.168C1212.57,848.201 1215.12,849.402 1215.82,849.807C1216.53,850.213 1222.06,852.858 1228.12,855.657C1234.18,858.456 1239.89,861.096 1240.86,861.664C1241.82,862.146 1245.95,864.066 1250.07,865.815C1254.2,867.649 1258.86,870.067 1260.45,871.13C1261.96,872.281 1264.42,873.571 1265.73,873.956C1267.13,874.337 1268.91,875.909 1269.74,877.428C1270.56,878.948 1271.75,880.799 1272.38,881.551C1273.73,883.31 1272.9,884.457 1269.65,885.345C1268.02,885.831 1266.71,885.447 1264.85,883.964C1261.65,881.495 1253.36,879.032 1242.4,877.264C1231.7,875.487 1230.15,875.541 1219.68,878.143C1207.75,880.967 1201.47,884.627 1190.13,894.914C1185.17,899.473 1175.69,911.072 1173.74,915.01C1173.09,916.237 1171.14,920.176 1169.35,923.679C1163.42,935.325 1162.53,937.249 1162.58,938.709C1162.51,939.485 1162.2,940.357 1161.69,940.718C1160.76,941.353 1155.72,959.247 1154.17,967.558C1153.29,972.491 1153.24,981.439 1154.04,1011.51C1154.63,1032.31 1154.88,1050.71 1154.59,1052.35C1154.38,1053.99 1153.97,1060.03 1153.64,1065.72C1152.95,1079.33 1151.08,1085.67 1146.45,1089.62C1143.09,1092.49 1127.44,1100.61 1125.02,1100.69C1122.86,1100.77 1117.81,1100.99 1115.32,1096.35C1112.75,1091.71 1109.5,1088.77 1104.8,1087.72C1099.31,1086.45 1095.71,1082.53 1094.03,1081.13C1093.05,1080.3 1091.28,1079.25 1090.06,1078.69C1088.83,1078.13 1087.24,1077.15 1086.52,1076.49C1085.81,1075.91 1082.46,1073.79 1079.02,1071.76C1070.12,1066.57 1067.11,1064.61 1065.5,1062.86C1064.61,1062.03 1063.44,1060.86 1062.82,1060.37C1062.12,1059.88 1060.33,1058.31 1058.82,1056.9C1057.21,1055.49 1053.3,1052.19 1049.93,1049.55C1046.64,1046.91 1038.87,1039.1 1032.76,1032.17C1026.65,1025.25 1020.83,1018.83 1019.84,1017.83C1018.86,1016.92 1017.59,1015.16 1017.12,1013.88C1016.56,1012.61 1015.75,1011.61 1015.23,1011.63C1014.71,1011.64 1013.63,1010.39 1012.89,1008.87C1012.15,1007.43 1010.5,1004.65 1009.32,1002.8C1008.05,1000.95 1006.59,998.683 1006.04,997.756C1005.5,996.829 1003.48,993.373 1001.56,990.171C996.167,981.242 990.549,970.687 990.513,969.57C990.496,969.054 990.114,967.949 989.654,967.105C985.51,959.337 981.815,949.402 979.139,938.916C978.044,934.482 976.676,929.627 976.199,928.267C974.664,923.59 973.803,918.374 971.827,900.122C971.097,893.611 970.631,887.262 970.848,885.964C971.069,884.752 971.372,880.785 971.517,877.254C972.158,865.018 973.652,852.408 975.335,845.64C976.163,841.827 977.679,835.237 978.665,830.988C980.563,822.837 983.163,812.339 986.329,800.617C990.64,784.21 1002.62,748.269 1006.59,739.874C1007.88,737.076 1009.79,732.021 1010.98,728.539C1012.07,725.06 1015.44,716.858 1018.43,710.303C1021.5,703.745 1025.13,695.533 1026.49,692.131C1027.85,688.729 1030.84,682.26 1033.12,677.88C1035.31,673.417 1038.56,667.025 1040.27,663.697C1050.67,643.121 1060.31,625.754 1063.48,622.031C1064.56,620.789 1066.21,618.409 1067.37,616.735C1068.44,615.063 1071.59,610.825 1074.5,607.283C1077.33,603.744 1079.89,599.956 1080.19,598.741C1081.47,592.933 1076.99,590.767 1071.06,594.329C1064.95,597.983 1048.31,612.927 1038.7,623.326C1022.24,641.102 1012.04,657.456 999.064,686.637C988.825,709.615 984.247,723.107 976.892,752.349C973.752,764.845 973.272,766.066 970.173,769.184C967.913,771.499 966.13,772.508 964.828,772.381C963.006,772.186 962.911,771.932 962.794,762.991C962.777,757.142 963.415,750.153 964.586,743.575C965.614,737.949 967.431,727.306 968.663,719.952C971.692,701.354 974.024,690.607 978.43,674.455C986.406,645.707 989.095,637.958 997.971,618.296C1005.63,601.256 1010.88,592.472 1030.54,563.746C1032.85,560.483 1036.48,555.024 1038.71,551.764C1041.03,548.5 1044.17,544.09 1045.75,542.057C1047.41,540.106 1051.15,535.331 1054.14,531.443C1057.13,527.64 1064.13,519.654 1069.82,513.693C1075.67,507.468 1080,502.242 1079.97,501.297C1079.94,500.352 1079.38,498.996 1078.74,498.072C1075.86,494.56 1065.99,499.377 1043.24,515.395C1031.57,523.715 1021.31,532.502 1013.03,541.392C1005.6,549.393 997.764,558.611 996.87,560.362C996.382,561.326 994.487,564.23 992.497,566.88C989.605,571.023 977.44,593.295 977.482,594.583C977.488,594.755 976.593,596.507 975.526,598.264C971.429,605.288 958.58,638.421 953.023,656.419C948.951,669.549 943.255,696.583 942.517,705.812C942.046,712.624 940.965,716.618 938.88,719.013C936.631,721.672 934.555,721.658 932.128,718.818C930.238,716.562 930.143,716.307 929.959,694.639C929.764,667.294 931.294,650.468 935.889,629.493C942.14,600.891 953.036,574.191 967.628,552.093C981.634,530.618 991.522,515.479 996.293,507.915C1002.71,497.714 1008.01,490.648 1016.85,480.277C1024.51,471.236 1025.81,468.525 1023.31,466.203C1021.26,464.297 1017.05,465.303 1011.21,469.206C995.98,479.629 973.583,495.72 971.32,497.949C969.982,499.372 967.628,501.433 966.109,502.604C964.59,503.775 961.722,506.025 959.613,507.647C950.583,514.585 935.008,533.019 924.377,549.216C914.818,563.827 901.561,600.415 896.832,625.265C894.603,636.524 891.88,661.907 890.902,679.745C890.139,693.534 888.837,698.74 885.532,700.833C884.348,701.649 883.737,701.498 882.745,700.243C879.772,696.562 878.938,689.538 878.161,662.901C876.787,617.879 879.091,584.942 885.358,556.856C890.188,535.099 895.773,520.626 905.788,504.106C908.413,499.714 912.262,493.043 914.472,489.181C918.064,482.605 927.726,468.506 937.507,455.435C941.735,449.783 942.657,446.224 940.428,444.152C938.912,442.742 937.279,443.057 932.603,445.543C930.306,446.741 927.012,449.178 925.167,450.963C923.323,452.748 919.697,455.626 917.075,457.438C910.983,461.607 903.397,467.721 901.315,470.202C900.396,471.18 899.3,472.078 898.782,472.096C897.573,472.138 890.753,477.881 885.648,483.134C883.555,485.271 880.779,487.69 879.511,488.595C876.209,490.774 857.755,511.115 849.785,521.37C832.434,543.737 829.458,550.635 822.758,584.07C822.17,587.272 821.125,597.716 820.401,607.375C819.189,625.996 819.947,646.698 822.508,666.993C823.893,677.697 828.494,699.555 831.504,709.685C834.804,720.752 834.065,724.648 828.709,724.835C824.217,724.992 820.332,719.881 813.264,704.645C809.644,697.03 806.389,690.005 805.927,689.075C790.702,659.674 780.656,627.254 776.757,595.05C774.736,578.09 774.978,556.235 777.467,536.967C778.573,528.413 779.869,517.703 780.242,513.217C780.616,508.731 781.229,503.635 781.608,501.988C781.987,500.34 782.466,496.453 782.625,493.351C783.28,484.211 786.348,466.816 788.109,462.454C790.188,457.221 790.082,453.956 787.61,452.408C783.283,449.634 782.182,450.361 766.308,467.601C757.951,476.58 748.601,486.969 745.438,490.778C718.785,522.328 701.844,557.324 700.777,583.079C700.25,596.171 704.369,619.164 710.174,635.476C710.843,637.431 711.989,640.745 712.663,642.872C713.424,644.996 714.268,647.031 714.544,647.537C714.904,647.955 715.745,649.904 716.411,651.773C716.991,653.645 718.117,656.358 718.858,657.88C719.597,659.316 720.162,660.759 720.174,661.103C720.193,661.704 727.219,675.651 728.579,677.582C729.033,678.254 730.41,680.7 731.784,683.061C733.068,685.338 735.078,688.622 736.086,690.393C741.549,698.804 743.104,701.416 743.123,702.018C743.134,702.361 743.943,703.279 744.921,704.105C745.899,704.931 746.713,706.021 746.732,706.622C746.752,707.224 747.663,708.654 748.828,709.904C749.904,711.07 752.055,713.404 753.493,715.074C755.017,716.741 757.077,718.905 758.147,719.9C762.779,724.039 765.554,732.285 762.653,733.505C756.851,735.943 749.374,732.076 734.325,718.753C730.585,715.443 725.527,711.491 723.058,710.029C720.676,708.564 715.174,704.283 710.813,700.479C706.538,696.671 701.823,692.621 700.315,691.47C692.342,685.641 677.271,671.631 677.218,669.998C677.204,669.569 676.223,668.657 675.077,668.009C671.547,665.81 661.163,654.99 661.113,653.444C661.096,652.928 660.291,652.096 659.41,651.611C658.446,651.215 657.367,649.962 656.988,648.943C656.696,647.921 655.057,645.398 653.519,643.301C651.894,641.208 650.347,638.853 649.979,638.178C649.611,637.503 648.332,635.397 647.148,633.546C641.424,625.059 639.724,620.646 637.628,609.365C636.689,604.409 635.07,597.155 634.075,593.147C633.08,589.139 631.806,581.873 631.299,576.902C630.246,565.757 629.039,563.219 624.892,563.363C620.918,563.502 616.554,567.611 613.566,574.166C612.271,576.877 609.637,581.012 607.809,583.312C602.238,590.215 592.069,607.342 589.115,614.928C584.01,628.18 580.947,639.97 579.944,649.481C579.149,657.021 582.428,667.844 583.096,671.992C583.23,672.824 583.629,673.592 583.952,674.371C584.327,675.275 584.885,676.474 585.348,677.418C585.782,678.304 586.702,679.177 586.73,680.036C586.758,680.895 587.753,682.237 588.987,682.968C590.222,683.699 591.209,684.783 591.225,685.298C591.245,685.9 592.24,687.241 593.485,688.316C594.731,689.391 595.723,690.646 595.74,691.162C595.757,691.677 596.57,692.767 597.554,693.765C600.946,697.001 605.616,702.343 605.633,702.858C605.7,704.92 638.39,734.142 648.386,741.018C656.526,746.669 660.071,749.297 662.827,751.609C664.424,752.844 667.077,754.644 668.746,755.445C670.418,756.333 672.442,757.381 673.147,757.786C673.852,758.192 677.188,759.71 680.431,761.059C686.22,763.523 691.646,768.15 691.729,770.728C691.788,772.532 686.317,774.529 680.961,774.716C678.283,774.809 668.663,774.199 659.469,773.402C650.359,772.515 640.385,771.659 637.267,771.51C634.145,771.275 630.241,770.895 628.586,770.522C626.93,770.15 619.729,769.455 612.534,768.932C605.425,768.406 597.789,767.64 595.615,767.286C593.438,766.846 586.909,766.003 582.575,765.247C572.79,763.538 546.693,758.915 536.902,757.035C532.506,756.191 528.165,755.076 523.829,753.965C519.105,752.753 513.596,751.34 508.558,749.767C503.024,748.039 495.823,745.567 490.627,743.598C486.139,741.897 480.546,739.434 477.384,737.953C475.397,737.022 473.508,735.888 471.657,734.712C467.036,731.777 453.77,723.209 449.656,720.342C448.587,719.597 447.858,718.461 446.969,717.511C446.073,716.553 445.345,715.38 444.28,714.594C440.883,712.09 433.529,703.559 426.589,702.482C419.649,701.405 404.364,674.537 400.055,678.573C395.746,682.608 400.586,722.068 400.736,726.693C400.84,729.896 402.934,734.013 403.542,735.884C403.769,736.583 404.086,737.249 404.387,737.919C405.07,739.444 406.561,742.732 407.644,745.031C408.7,747.27 409.973,750.167 410.888,751.712C411.47,752.694 412.399,753.426 413.135,754.3C413.884,755.192 414.699,756.092 415.386,757.06C416.142,758.123 416.645,759.682 417.666,760.679C420.584,763.53 427.221,770.441 432.893,774.168C440.434,779.123 452.319,786.238 462.913,790.409C474.652,795.031 493.837,799.422 503.33,801.9C508.774,803.322 514.3,804.48 519.872,805.28C527.664,806.398 542.356,807.377 550.079,808.612C555.558,809.489 562.322,811.425 566.212,812.694C568.757,813.525 572.785,815.375 573.418,816.227C574.051,817.08 571.25,817.628 570.01,817.808C564.056,818.675 548.502,820.607 537.694,821.43C513.753,823.255 449.297,827.023 426.361,828.755C417.567,829.419 408.621,830.678 400.082,831.822C391.741,832.939 382.575,834.282 375.123,835.617C368.495,836.805 361.71,837.573 355.367,839.833C348.812,842.169 339.536,847.281 335.793,849.633C334.324,850.556 332.97,852.814 332.906,853.949C332.842,855.083 334.33,855.963 335.408,856.442C338.699,857.904 347.527,861.194 352.65,862.721C357.058,864.035 361.64,864.689 366.15,865.604C373.985,867.195 391.907,870.884 399.664,872.262C403.97,873.027 408.351,873.307 412.689,873.872C417.466,874.494 423.113,875.29 428.326,875.993C433.9,876.744 440.172,877.798 446.134,878.382C459.076,879.651 490.799,882.615 505.981,883.605C516.375,884.283 527.902,883.944 537.226,884.321C545.47,884.654 555.909,885.232 561.926,885.868C565.782,886.275 570.427,887.521 573.329,888.136C575.345,888.563 578.574,888.957 579.343,889.56C580.026,890.097 578.806,891.629 577.944,891.76C567.387,893.361 536.659,896.792 515.999,899.168C489.876,902.172 439.731,907.634 421.206,909.786C415.737,910.421 410.258,911.057 404.847,912.077C397.755,913.414 385.307,916.271 378.654,917.807C374.055,918.87 368.643,920.25 364.929,921.297C362.041,922.111 358.787,922.314 356.371,924.09C352.992,926.573 343.985,932.879 344.655,936.196C345.325,939.513 356.182,942.245 360.39,943.99C363.431,945.251 366.689,945.943 369.904,946.668C378.82,948.68 404.021,954.151 413.885,956.057C418.904,957.028 424.212,957.561 429.087,958.107C433.759,958.631 438.441,959.122 443.138,959.337C453.605,959.818 481.697,960.63 491.885,960.991C496.015,961.138 501.898,961.258 504.27,961.505C504.963,961.577 506.102,961.986 506.118,962.473C506.133,962.96 504.838,963.692 504.365,964.426C503.788,965.321 503.804,967.277 502.659,967.84C499.524,969.383 491.436,972.385 485.551,973.684C479.611,974.995 473.199,975.043 467.022,975.706C459.911,976.471 450.88,977.012 442.888,978.269C431.056,980.129 406.058,984.929 396.03,986.871C391.563,987.735 387.118,988.735 382.723,989.915C378.308,991.101 373.71,992.055 369.536,993.988C365.318,995.941 359.018,999.014 357.416,1001.64C355.941,1004.05 358.619,1008.06 359.927,1009.72C361.091,1011.2 363.424,1011.18 365.264,1011.6C368.982,1012.44 377.996,1013.92 382.233,1014.79C385.073,1015.37 387.861,1016.18 390.688,1016.82C393.767,1017.51 397.349,1018.33 400.704,1018.96C404.736,1019.72 410.418,1020.7 414.881,1021.39C419.068,1022.04 423.294,1022.59 427.477,1023.1C431.637,1023.61 435.798,1024.13 439.976,1024.47C445.049,1024.88 451.958,1024.94 457.915,1025.57C464.033,1026.21 473.934,1027.49 476.686,1028.35C477.735,1028.68 475.175,1029.95 474.429,1030.75C473.635,1031.61 473.052,1032.99 471.924,1033.51C467.805,1035.41 455.635,1040.17 449.719,1042.19C445.386,1043.68 440.783,1044.46 436.426,1045.67C432.122,1046.87 427.813,1048.06 423.576,1049.47C415.804,1052.07 400.856,1056.78 389.794,1061.23C378.51,1065.77 362.47,1072.99 355.873,1076.69C353.31,1078.13 351.317,1081.54 350.21,1083.43C349.417,1084.78 349.151,1086.77 349.235,1088.02C349.307,1089.09 349.659,1090.64 350.712,1090.89C353.457,1091.54 360.704,1091.65 365.708,1091.92C371.96,1092.24 380.713,1092.99 388.225,1092.85C397.762,1092.68 411.794,1091.97 422.929,1090.87C433.69,1089.8 446.154,1086.94 455.039,1086.22C462.084,1085.64 473.115,1085.78 476.238,1086.51C477.8,1086.88 474.686,1089.32 473.777,1090.64C472.828,1092.02 472.007,1093.83 470.539,1094.8C468.112,1096.4 462.952,1098.37 459.214,1100.27C451.839,1104.01 432.995,1113.65 426.293,1117.24C423.766,1118.59 421.31,1120.1 419.003,1121.8C413.709,1125.69 400.499,1135.73 394.532,1140.63C390.541,1143.9 386.153,1148.06 383.198,1151.17C380.822,1153.67 378.001,1156.71 376.802,1159.31C375.756,1161.57 375.844,1164.87 376.005,1166.73C376.124,1168.1 377.304,1169.44 377.769,1170.45C378.128,1171.24 377.957,1172.62 378.798,1172.83C380.672,1173.29 385.609,1173.16 389.017,1173.24C393.691,1173.35 400.935,1174.15 406.841,1173.48C419.667,1172.03 450.999,1167.43 465.969,1164.54C476.382,1162.53 490.747,1157.38 496.66,1156.16C498.262,1155.83 500.749,1156.44 501.451,1157.19C502.153,1157.94 501.307,1159.57 500.871,1160.65C500.404,1161.82 499.637,1163.2 498.65,1164.17C497.044,1165.76 493.921,1168.48 491.234,1170.19C481.264,1176.55 450.278,1193.61 438.826,1202.3C431.963,1207.5 425.03,1217.39 422.523,1222.31C421.068,1225.16 423.11,1229.74 423.783,1231.81C424.197,1233.08 425.392,1234.06 426.559,1234.72C428.541,1235.86 432.68,1237.69 435.68,1238.62C438.554,1239.51 441.554,1240.04 444.556,1240.29C448.588,1240.62 454.836,1241.46 459.875,1240.61C469.796,1238.95 494.415,1232.24 504.082,1230.3C508.612,1229.39 515.846,1228.14 517.877,1228.96C519.878,1229.76 517.523,1233.46 516.263,1235.21C514.76,1237.29 511.465,1239.57 508.856,1241.49C505.66,1243.83 500.815,1246.91 497.087,1249.29C493.597,1251.52 489.803,1253.59 486.486,1255.77C483.309,1257.86 480.003,1260.33 477.187,1262.37C474.628,1264.23 472.047,1266.14 469.587,1268.06C467.159,1269.95 464.561,1271.68 462.425,1273.9C458.381,1278.1 448.641,1288.88 445.322,1293.24C443.834,1295.2 442.48,1298.5 442.516,1300.05C442.546,1301.35 444.565,1301.66 445.537,1302.53C446.621,1303.49 447.515,1305.28 449.018,1305.85C450.886,1306.55 454.154,1306.93 456.746,1306.78C460.515,1306.56 466.683,1305.36 471.636,1304.54C477.701,1303.54 486.039,1302.38 493.136,1300.78C502.723,1298.61 519.666,1293.88 529.161,1291.52C536.118,1289.8 546.118,1286.8 550.106,1286.66C551.784,1286.61 554.216,1289.45 553.091,1290.69C549.835,1294.29 538.121,1302.45 530.568,1308.25C522.875,1314.15 512.286,1321.89 506.931,1326.1C503.973,1328.43 501.061,1330.84 498.436,1333.54C494.837,1337.23 487.403,1344.89 485.336,1348.27C484.358,1349.87 485.48,1352.27 486.035,1353.84C486.554,1355.31 487.102,1357.68 488.669,1357.7C493.601,1357.78 506.825,1355.28 515.628,1354.27C524.237,1353.28 532.916,1352.9 541.49,1351.65C550.629,1350.31 563.189,1347.81 570.462,1346.25C575.411,1345.19 581.767,1341.94 585.123,1342.3C587.848,1342.59 590.341,1346.74 590.596,1348.38C590.851,1350.02 587.789,1350.72 586.653,1352.13C583.688,1355.82 575.791,1366.1 572.805,1370.51C571.117,1373 569.478,1376.36 568.742,1378.56C568.195,1380.2 568.341,1382.17 568.391,1383.74C568.437,1385.15 568.671,1386.58 569.046,1387.93C569.421,1389.28 569.648,1390.92 570.643,1391.83C571.638,1392.74 573.848,1392.88 575.018,1393.4C575.952,1393.81 576.668,1394.7 577.663,1394.94C579.668,1395.41 583.89,1396.1 587.046,1396.24C591.868,1396.46 602.167,1396.22 606.593,1396.25C608.931,1396.27 608.964,1397.37 613.605,1396.44C630.275,1393.1 635.091,1392.25 641.294,1391.51C645.001,1391.13 652.132,1389.67 657.104,1388.3C661.992,1387.01 671.531,1385.13 678.25,1384.29C684.966,1383.37 692.527,1381.81 695.088,1380.78C697.652,1379.83 703.061,1378.61 707.113,1378.21C715.471,1377.23 724.213,1374.77 731.107,1371.35C733.663,1370.14 740.413,1367.58 746.059,1365.67C764.886,1359.51 768.531,1359.89 763.677,1367.55C760.639,1372.56 760.218,1372.91 752.928,1377.47C749.963,1379.38 745.657,1382.62 743.389,1384.68C741.21,1386.82 739.017,1388.53 738.585,1388.55C737.03,1388.6 728.254,1398.03 725.545,1402.51C722.346,1407.87 722.215,1409.16 724.428,1410.72C725.225,1411.29 726.657,1412.79 727.563,1414.05C729.015,1416.15 729.452,1416.31 733.585,1415.73C748.567,1413.66 772.099,1405.87 786.036,1398.25C789.776,1396.22 797.018,1392.88 802.138,1390.72C807.26,1388.65 816.022,1384.13 821.709,1380.83C833.42,1373.89 837.775,1372.19 844.255,1371.96C851.771,1371.7 855.151,1374.59 853.234,1379.47C852.119,1382.44 850.001,1383.8 842.728,1386.21C839.902,1387.08 833.59,1389.79 828.654,1392.29C823.716,1394.7 815.88,1398.41 811.195,1400.64C806.508,1402.78 796.712,1407.42 789.472,1410.86C778.743,1416.05 752.393,1427.63 740.444,1432.52C739.078,1433.09 732.861,1436.06 726.643,1439.02C720.512,1441.99 715.229,1444.41 714.969,1444.42C714.71,1444.43 710.881,1446.37 706.631,1448.67C702.295,1450.97 695.061,1454.58 690.63,1456.62C681.597,1460.81 650.653,1477.37 642.175,1482.65C639.124,1484.57 632.511,1488.67 627.333,1491.69C622.244,1494.79 616.905,1498.16 615.469,1499.24C614.118,1500.23 608.369,1504.31 602.787,1508.2C590.776,1516.53 574.924,1529.12 566.021,1537.26C562.492,1540.48 558.126,1544.51 556.272,1546.03C549.205,1552.13 522.064,1581.97 519.693,1586.19C519.289,1587.06 516.803,1590.41 514.234,1593.86C510.251,1599.07 497.839,1619.03 497.875,1620.15C497.881,1620.32 496.256,1623.56 494.213,1627.24C492.173,1631.01 489.42,1636.79 488.06,1640.19C486.7,1643.59 485.173,1647.17 484.515,1648.22C483.122,1650.59 476.871,1671.2 474.447,1681.78C472.014,1692.1 469.325,1713.18 468.439,1728.52C467.026,1754.28 471.123,1792.59 478.58,1822.52C483.959,1844.35 490.873,1865.53 494.722,1872.19C496.28,1874.88 497.584,1877.76 497.609,1878.54C497.634,1879.31 498.289,1880.83 499.1,1881.84C500.095,1883.18 500.973,1883.58 502.6,1883.09C504.058,1882.7 504.668,1882.85 504.696,1883.71C504.718,1884.39 505.747,1886.77 506.861,1889.14C510.548,1896.15 513.856,1904.81 516.116,1913.15C518.287,1921.42 527.183,1945.02 531.837,1955.18C534.159,1960.09 550.698,1986.16 552.877,1986.69C556.363,1987.51 542.597,1961.6 543.118,1959C543.425,1957.79 541.764,1949.25 539.077,1938.41C527.807,1892.28 521.43,1845.02 519.872,1796.99C519.081,1772.59 519.449,1759.94 521.344,1741.04C523.893,1715.66 527.042,1698.09 531.671,1683.48C532.772,1680.08 534.252,1675.04 535.024,1672.18C537.339,1663.58 547.547,1639.66 552.302,1631.58C553.533,1629.56 555.328,1626.23 556.387,1624.21C558.26,1620.62 565.583,1609.1 570.131,1602.66C571.372,1600.9 573.269,1598.08 574.339,1596.41C575.41,1594.74 580.905,1588.18 586.495,1581.88C591.997,1575.49 596.578,1570.09 596.567,1569.74C596.514,1568.11 612.856,1557.3 615.531,1557.12C618.814,1557.01 609.963,1572.11 600.371,1583.03C597.283,1586.49 593.9,1591.51 583.542,1608.13C577.703,1617.45 567.161,1639.06 564.238,1647.59C563.126,1650.64 561.376,1655.35 560.25,1657.97C558.162,1662.94 554.021,1676.59 552.751,1682.74C552.38,1684.65 551.549,1688.37 550.856,1690.98C545.034,1714.15 542.632,1746.74 544.165,1780.66C545.302,1805.05 550.04,1831.12 558.908,1861.86C563.879,1879.15 579.597,1913.09 590.352,1930C591.536,1931.85 594.827,1937.33 597.751,1942.13C600.588,1946.93 603.868,1952.07 604.955,1953.58C615.099,1967.67 618.984,1972.78 627.182,1982.91C649.084,2010.18 684.176,2044.14 706.743,2059.95C709.399,2061.83 713.12,2064.54 714.898,2066.03C716.762,2067.51 722.068,2071.11 726.834,2074.04C731.599,2076.97 736.275,2079.82 737.248,2080.47C738.218,2081.04 741.829,2083.07 745.176,2084.93C748.61,2086.79 751.957,2088.65 752.662,2089.05C753.37,2089.54 756.527,2090.9 759.682,2092.16C762.926,2093.51 766.529,2095.28 767.769,2096.18C770.074,2097.91 782.308,2101.78 784.986,2101.69C785.85,2101.66 787.695,2102.54 789.286,2103.6C791.321,2104.99 793.762,2105.6 798.006,2105.79C801.47,2105.93 806.609,2107.04 810.633,2108.45C818.86,2111.43 863.368,2113.72 864.964,2112.29C868.916,2108.8 836.183,2104.2 820.568,2097.43C816.97,2095.84 812.837,2093.75 811.243,2092.6C809.649,2091.45 806.74,2089.75 804.889,2088.69C788.525,2080.15 762.535,2062.82 742.217,2047.01C709.034,2021.25 672.476,1982.1 653.866,1952.3C633.071,1919.14 620.697,1892.3 606.991,1851.07C599.322,1827.94 590.273,1783.61 591.46,1774.89C592,1770.22 595.501,1768.81 599.399,1771.68C600.904,1772.75 601.855,1775.38 603.956,1784.17C609.577,1808.14 618.609,1835.95 624.621,1847.96C626.008,1850.75 627.407,1853.88 627.789,1854.99C628.168,1856 630.86,1861.67 633.823,1867.68C642.612,1885.35 656.31,1907.66 669.976,1926.37C689.615,1953.2 722.533,1986.8 744.663,2002.46C746.876,2004.02 750.067,2006.4 751.756,2007.8C759.302,2013.82 786.702,2029.29 799.597,2034.86C817.84,2042.65 829.029,2046.31 850.119,2051.25C860.489,2053.64 885.283,2055.44 895.544,2054.48C903.91,2053.76 910.939,2051.79 914.403,2049.26C915.333,2048.63 918.081,2048.02 920.586,2047.93C927.757,2047.68 942.106,2044.77 947.393,2042.43C950.89,2040.94 952.239,2039.86 952.367,2038.48C952.707,2035.63 950.177,2034.94 937.533,2034.44C931.21,2034.14 923.058,2033.48 919.494,2032.91C915.932,2032.44 911.239,2031.74 909.071,2031.56C898.743,2030.46 876.321,2024.44 859.948,2018.31C840.95,2011.23 815.242,1997.25 800.344,1985.89C797.682,1983.84 793.694,1980.88 791.482,1979.32C781.566,1972.27 755.518,1947.81 747.77,1938.27C745.518,1935.51 743.269,1932.84 742.737,1932.43C741.227,1931.19 733.382,1921.32 733.362,1920.71C733.354,1920.46 731.18,1917.43 728.566,1914.17C722.616,1906.72 707.665,1883.08 703.68,1874.87C702.849,1873.27 700.154,1867.51 697.56,1862.18C694.965,1856.86 692,1850.77 690.98,1848.65C686.998,1840.53 679.225,1816.89 676.399,1804.43C676.087,1802.81 674.694,1797.18 673.403,1792.07C667.136,1766.83 665.324,1732.31 668.819,1704.07C670.457,1690.59 671.112,1686.78 674.977,1669.96C677.335,1659.99 686.322,1635.76 690.65,1627.87C692.693,1624.19 695.209,1619.11 696.338,1616.58C697.464,1613.96 698.687,1611.68 699.111,1611.41C699.448,1611.14 701.011,1608.67 702.393,1605.96C703.859,1603.15 707.159,1598.22 709.728,1594.78C712.3,1591.42 715.781,1586.74 717.431,1584.28C719.084,1581.89 723.746,1576.31 727.84,1571.87C731.847,1567.43 735.601,1563.17 736.008,1562.38C736.989,1560.63 754.534,1544.28 763.288,1536.83C773.39,1528.31 775.837,1526.42 785.643,1519.45C793.505,1513.84 795.461,1512.83 798.825,1512.54C802.451,1512.33 802.715,1512.49 803.044,1514.63C803.49,1517.71 800.595,1521.77 793.444,1527.95C782.087,1537.81 758.277,1563.67 752.929,1572.11C752.104,1573.35 750.371,1575.9 748.964,1577.84C739.461,1591.51 730.953,1606.51 724.022,1622.15C722.007,1626.69 719.505,1632.2 718.538,1634.38C716.757,1638.14 712.371,1652.23 708.266,1666.99C700.137,1696.35 698.991,1735.7 705.086,1771.61C706.892,1781.95 714.562,1807.75 719.26,1819.28C726.501,1837.18 737.018,1857.45 744.264,1867.52C746.44,1870.63 748.257,1873.32 748.266,1873.58C748.322,1875.29 759.862,1889.77 773.333,1905.13C780.967,1913.81 804.953,1936.02 814.528,1943.26C818.162,1945.97 822.064,1948.93 823.218,1949.83C824.371,1950.74 827.732,1953.03 830.734,1954.9C833.735,1956.78 837.096,1959.07 838.25,1959.97C840.825,1962.03 850.08,1967.39 871.031,1978.7C886.437,1987.02 904.411,1994.56 915.486,1997.36C918.449,1998.03 922.038,1999.37 923.362,2000.18C924.772,2000.99 929.824,2002.11 935.209,2002.78C940.506,2003.45 945.297,2004.49 946.186,2005.23C948.585,2007.22 956.726,2010.2 963.339,2011.43C969.171,2012.6 969.517,2012.59 971.106,2010.9C972.357,2009.48 972.504,2008.7 971.752,2006.84C970.899,2004.54 969.302,2003.31 960.766,1998.79C953.284,1994.75 941.866,1986.72 918.897,1969.2C890.784,1947.73 863.119,1921.43 849.11,1902.83C847.123,1900.23 844.057,1896.38 842.262,1894.38C840.465,1892.29 837.48,1888.27 835.574,1885.5C833.751,1882.63 830.574,1878.01 828.668,1875.24C823.409,1867.77 809.885,1842.78 805.576,1832.61C788.997,1793.45 782.724,1754.71 786.196,1712.44C786.871,1703.9 789.479,1685.66 790.491,1682.19C790.875,1680.71 792.096,1675.68 793.152,1670.91C794.894,1663.28 797.694,1653.64 805.979,1626.43C807.239,1622.6 816.919,1604.83 817.981,1602.9C819.689,1599.57 869.899,1546.22 869.899,1546.22ZM927.5,1367.94C925.744,1372.47 923.124,1377.04 921.594,1377.86C919.304,1379.23 906.259,1390.35 904.932,1392.12C903.107,1394.51 888.947,1403.26 870.423,1413.45C861.416,1418.41 833.922,1432.01 830.842,1433.07C829.644,1433.45 823.262,1436.69 816.543,1440.19C809.91,1443.69 802.846,1447.2 800.881,1447.96C798.917,1448.72 795.517,1450.56 793.401,1452.01C791.203,1453.54 788.906,1454.74 788.129,1454.77C787.438,1454.79 785.147,1456.16 783.127,1457.87C781.106,1459.57 777.288,1461.86 774.733,1463.06C772.174,1464.18 769.454,1465.66 768.78,1466.2C768.108,1466.82 765.812,1468.02 763.677,1468.87C761.546,1469.8 759.085,1471.27 758.16,1472.07C756.231,1473.94 744.56,1482.09 743.869,1482.12C743.178,1482.14 725.1,1495.42 721.817,1498.2C720.471,1499.36 716.419,1502.43 712.782,1504.96C695.797,1517.25 660.56,1550.82 646.175,1568.61C635.195,1582.07 628.314,1591.26 623.867,1598.12C621.233,1602.25 618.51,1606.31 617.847,1607.19C616.515,1608.78 615.205,1611.07 613.425,1614.83C612.772,1616.05 610.643,1619.74 608.592,1623.17C601.779,1634.41 589.012,1664.79 585.309,1678.6C575.343,1715.33 572.939,1737.17 574.931,1774.6C576.152,1798.9 578.206,1814.23 582.024,1827.94C584.184,1835.86 587.233,1847.2 587.946,1850.53C588.345,1852.15 590.075,1857.51 591.792,1862.43C593.509,1867.36 595.797,1873.91 596.934,1876.96C603.605,1896 623.69,1936.58 633.581,1950.86C635.846,1954.05 638.488,1958.17 639.494,1959.86C641.601,1963.48 644.037,1966.58 659.989,1986.41C666.479,1994.52 674.115,2003.29 676.799,2006.03C679.566,2008.69 681.807,2011.1 681.818,2011.45C681.829,2011.79 684.34,2014.54 687.464,2017.53C690.502,2020.52 695.236,2025.17 698.004,2027.83C706.579,2036.22 732.181,2057.6 738.101,2061.43C739.689,2062.41 742.888,2065.05 745.204,2067.12C747.523,2069.28 750.179,2071.16 751.14,2071.47C753.495,2072.08 755.209,2074.26 754.289,2075.23C753.286,2076.3 744.499,2072.05 735.13,2065.84C733.625,2064.77 730.624,2062.9 728.416,2061.51C722.327,2057.77 709.201,2047.74 703.669,2042.51C700.908,2040.03 695.749,2035.65 692.11,2032.76C688.557,2029.88 684.017,2025.91 682.047,2023.83C680.163,2021.74 676.322,2018 673.471,2015.44C670.704,2012.78 665.696,2007.71 662.463,2004.04C659.231,2000.37 655.285,1996.03 653.677,1994.45C649.917,1990.54 635.222,1972.13 630.053,1964.74C619.716,1950.05 615.976,1944.08 607.521,1928.72C598.33,1912.01 585.204,1883.31 580.896,1870.47C579.558,1866.56 577.643,1860.86 576.506,1857.81C575.456,1854.75 573.706,1848.79 572.619,1844.61C571.529,1840.35 569.94,1834.04 569.135,1830.54C561.981,1801.98 558.899,1765.61 561.315,1738.78C563.605,1713.41 566.757,1695.93 572.542,1676.98C575.658,1666.37 579.615,1655.06 580.997,1652.34C581.488,1651.46 584.801,1644.29 588.352,1636.43C591.989,1628.56 595.55,1621.04 596.375,1619.81C597.2,1618.57 598.097,1616.91 598.42,1616.21C600.104,1612.11 614.854,1589.58 620.745,1581.89C623.568,1578.26 627.219,1573.49 628.791,1571.28C631.854,1567.05 638.935,1558.72 650.288,1546.11C671.245,1522.93 707.303,1493.37 730.325,1480.53C734.318,1478.32 738.975,1475.24 740.742,1473.71C742.512,1472.27 744.797,1470.73 745.822,1470.35C746.851,1470.06 751.193,1467.93 755.532,1465.71C759.784,1463.5 763.616,1461.65 764.048,1461.63C764.394,1461.62 769.022,1459.75 769.42,1458.7C769.983,1457.39 783.437,1450.05 786.263,1449.18C791.569,1447.45 795.206,1439.94 778.617,1447.36C774.462,1447.25 761.788,1453.28 758.388,1455.12C756.094,1456.4 753.11,1457.71 751.652,1458.11C742.91,1460.56 689.217,1487.72 668.266,1500.41C654.184,1508.9 635.799,1520.72 629.802,1525.15C622.116,1530.83 617.384,1534.27 614.165,1536.36C612.808,1537.18 610.111,1539.34 608.177,1541.04C606.156,1542.74 602.113,1546.07 599.159,1548.32C586.339,1558.4 562.225,1582.9 554.949,1593.21C553.299,1595.68 551.217,1598.16 550.462,1598.87C547.519,1601.47 542.575,1609.04 529.609,1630.57C523.207,1641.2 513.153,1664.51 509.65,1676.5C502.429,1701.87 499.386,1717.37 498.154,1735.39C497.803,1740.57 497.285,1748.58 496.914,1753.15C496.173,1762.3 497.857,1798.19 499.671,1811.46C501.962,1828.76 503.358,1837.14 505.808,1848.66C509.603,1867.02 509.623,1875.62 505.735,1875.76C503.316,1875.84 500.435,1867 497.096,1849.4C496.157,1844.44 494.568,1838.13 493.526,1835.33C487.626,1818.76 483.167,1771.95 484.97,1744.88C486.191,1726.52 489.42,1703.44 492.369,1693.02C499.024,1668.88 504.976,1652.41 510.92,1641.02C513.041,1637.08 514.747,1633.66 514.741,1633.49C514.721,1632.89 525.612,1614.02 530.628,1606.02C533.343,1601.71 536.982,1596.59 538.649,1594.64C540.402,1592.69 543.311,1589.06 545.044,1586.51C551.078,1577.87 577.756,1549.76 585.272,1544.16C587.805,1542.27 592.18,1538.5 594.95,1535.91C601.076,1530.11 618.474,1517.2 633.035,1507.49C636.337,1505.31 640.907,1502.22 643.363,1500.59C645.731,1498.96 650.734,1495.86 654.384,1493.76C658.035,1491.65 664.657,1487.81 669.068,1485.16C680.352,1478.4 721.636,1457.95 724.227,1457.86C724.832,1457.84 728.583,1456.16 732.666,1454.04C739.9,1450.43 755.35,1444.13 764.081,1441.33C771.441,1438.92 774.262,1437.88 777.837,1436.12C779.796,1435.19 784.166,1433.92 787.602,1433.2C790.955,1432.57 795.751,1431.11 798.136,1429.99C800.605,1428.79 804.111,1427.55 806,1427.14C807.89,1426.73 811.989,1425.12 815.058,1423.73C818.123,1422.24 823.496,1419.9 826.999,1418.58C830.502,1417.25 835.022,1415.29 837.154,1414.35C839.283,1413.33 848.491,1409.23 857.698,1405.12C878.588,1395.88 893.314,1388.57 895.496,1386.52C896.418,1385.62 899.994,1383.86 903.494,1382.45C907.596,1380.93 911.498,1378.56 914.524,1375.87C917.13,1373.55 920.424,1371.11 921.873,1370.46C923.322,1369.8 924.755,1368.64 924.989,1367.85C925.312,1367.15 926.07,1366.53 926.761,1366.5C927.711,1366.47 927.898,1366.89 927.5,1367.94ZM949.092,1372.35C949.223,1376.38 949.304,1376.21 940.38,1386.41C936.292,1391.03 932.379,1395.72 931.724,1396.86C930.245,1399.24 926.63,1402.46 922.06,1405.54C920.198,1406.81 916.751,1409.86 914.41,1412.35C912.156,1414.83 908.53,1417.71 906.401,1418.73C901.975,1420.95 896.8,1424.06 893.339,1426.67C889.705,1429.29 880.626,1434.68 867.879,1441.67C861.845,1444.97 856.068,1448.18 855.135,1448.73C854.204,1449.37 851.911,1450.65 850.041,1451.66C840.173,1456.74 808.659,1474.44 798.903,1480.28C785.245,1488.5 779.73,1491.79 774.298,1494.99C772.005,1496.27 769.641,1498.08 768.975,1498.87C768.309,1499.67 766.027,1501.3 763.82,1502.58C759.23,1505.06 753.896,1508.6 749.512,1512.11C747.91,1513.37 742.765,1517.42 738.125,1521.02C712.657,1541.09 692.614,1563.12 675.584,1590.04C672.129,1595.49 669.336,1600.06 669.347,1600.4C669.356,1600.66 667.642,1603.82 665.599,1607.5C663.557,1611.18 660.956,1616.35 659.833,1619.06C658.713,1621.85 656.542,1626.91 655.012,1630.4C652.198,1636.95 648.867,1646.27 647.48,1651.48C647.101,1653.13 646.145,1655.66 645.498,1657.06C643.23,1661.78 639.507,1680.32 637.163,1698.72C635.703,1709.69 635.937,1735.58 637.484,1748.6C640.761,1774.97 642.863,1786.42 647.347,1802.01C656.203,1832.4 664.737,1852.84 680.627,1881.44C688.893,1896.29 692.641,1902.52 694.614,1904.69C695.241,1905.36 697.78,1908.97 700.238,1912.75C704.697,1919.56 721.569,1941.08 724.963,1944.4C726.03,1945.31 728.271,1947.73 729.979,1949.73C740.58,1961.92 764.987,1983.78 776.207,1991.04C779.3,1993.08 783.899,1996.19 786.379,1997.99C790.899,2001.36 800.338,2007.06 809.671,2012.15C816.713,2015.94 838.398,2025.85 839.607,2025.81C840.126,2025.79 842.489,2026.66 844.771,2027.69C847.054,2028.73 852.825,2030.68 857.627,2032.06C862.428,2033.44 869.156,2035.53 872.483,2036.79C875.897,2038.05 880.27,2039.53 882.36,2039.97C890.82,2042.17 883.683,2043.45 869.209,2042.5C860.366,2041.86 842.302,2036.9 825.573,2030.43C816.814,2027.04 794.054,2015.96 791.303,2013.82C790.325,2013 786.53,2010.63 782.918,2008.61C774.633,2003.82 773.303,2002.84 760.799,1993.3C749.178,1984.33 726.983,1964.03 719.258,1955.18C704.171,1937.99 699.845,1932.63 690.702,1920.05C666.532,1886.83 646.725,1846.84 635.82,1809.29C630.261,1789.87 629.361,1786.12 626.763,1770.04C620.796,1732.75 621.186,1704.78 628.078,1671.94C629.126,1666.92 630.511,1661.62 631.071,1660.23C631.715,1658.74 633.281,1653.7 634.683,1648.92C635.998,1644.14 638.127,1637.79 639.412,1634.73C640.699,1631.77 641.739,1629.15 641.73,1628.89C641.691,1627.69 652.783,1604.34 656.954,1596.97C665.047,1582.49 669.581,1575.62 680.375,1561.74C691.335,1547.68 713.526,1525.24 726.435,1515.24C730.398,1512.09 735.966,1507.77 738.747,1505.52C741.528,1503.27 744.819,1500.75 746.176,1499.93C747.531,1499.02 750.914,1496.67 753.704,1494.68C775.262,1479.39 811.778,1458.59 859.432,1434.56C865.304,1431.61 873.89,1427.01 878.558,1424.26C883.226,1421.52 888.663,1418.49 890.708,1417.56C892.754,1416.63 897.154,1413.64 900.44,1410.94C903.815,1408.33 907.702,1405.53 909.146,1404.7C910.589,1403.88 914.212,1400.91 917.233,1398.06C920.254,1395.2 924.955,1390.82 927.645,1388.4C930.417,1385.9 935.609,1380.64 939.282,1376.56C946.885,1368.29 948.933,1367.45 949.092,1372.35ZM992.911,1355.42C992.898,1357.66 992.268,1359.57 991.181,1360.73C990.178,1361.8 989.453,1363.45 989.489,1364.57C989.526,1365.69 989.219,1366.9 988.801,1367.35C988.386,1367.88 987.511,1370.23 986.811,1372.66C986.112,1375.1 983.829,1379.39 981.845,1382.21C979.775,1385.04 978.133,1387.76 978.153,1388.36C978.194,1389.65 963.305,1407.89 954.362,1417.49C947.509,1424.87 933.012,1439.22 926.46,1445.21C922.091,1449.15 914.109,1456.39 908.647,1461.32C876.301,1490.66 863.719,1502.71 842.046,1525.14C819.874,1548.19 802.774,1570.29 788.511,1594.53C784.089,1602.16 772.839,1625.95 771.515,1630.47C770.969,1632.29 769.932,1635 769.202,1636.49C767.324,1639.9 763.929,1649.91 762.413,1656.5C761.728,1659.37 760.195,1665.44 758.958,1669.96C749.809,1705.2 747.95,1746.55 754.293,1776.77C758.39,1796.41 758.88,1798.2 763.055,1809.58C772.714,1835.39 775.769,1841.57 790.929,1866.32C795.954,1874.58 809.595,1892.51 817.493,1901.35C825.483,1910.36 838.634,1923.84 843.439,1927.97C845.573,1929.79 851.088,1934.5 855.539,1938.38C869.685,1950.53 874.121,1953.99 885.79,1961.76C889.064,1964.05 893.225,1967 894.998,1968.32C896.773,1969.72 899.693,1971.76 901.46,1972.91C909.141,1977.71 914.82,1982.16 915.475,1983.68C915.849,1984.53 915.874,1985.31 915.528,1985.32C913.455,1985.39 904.292,1982.87 903.138,1981.97C902.424,1981.3 899.61,1979.85 896.973,1978.57C888.719,1974.73 870.003,1962.99 858.747,1954.61C855.467,1952.15 850.503,1948.45 847.845,1946.48C837.834,1939.17 809.857,1911.25 801.544,1900.27C799.465,1897.51 795.043,1891.81 791.796,1887.71C784.935,1878.83 774.295,1862.78 768.596,1852.39C762.81,1842.02 753.184,1819.9 748.976,1807.49C745.911,1798.31 744.726,1793.79 740.975,1776.81C737.525,1761.1 735.989,1735.09 737.611,1718.44C740.908,1684.09 746.824,1658.51 758.615,1627.39C767.457,1604.03 784.498,1574.8 803.265,1550.75C815.721,1534.83 845.83,1503.16 867.079,1483.67C871.028,1480.09 874.804,1476.52 875.47,1475.72C876.139,1475.01 878.661,1472.77 880.932,1470.8C883.293,1468.91 888.418,1464.26 892.45,1460.59C896.483,1456.92 901.36,1452.62 903.383,1451.01C905.406,1449.39 908.937,1446.25 911.2,1444.03C913.549,1441.79 917.504,1438.39 920.037,1436.49C922.57,1434.6 926.349,1431.11 928.433,1428.72C930.432,1426.32 934.294,1422.75 936.911,1420.77C944.254,1415.18 970.528,1385.27 973.446,1379.24C975.555,1374.95 979.086,1369.15 980.017,1368.51C980.527,1368.24 981.589,1366.31 982.472,1364.21C983.269,1362.12 984.76,1360.09 985.702,1359.8C986.641,1359.42 988.218,1357.39 989.099,1355.21C991.192,1350.41 993.012,1350.51 992.911,1355.42ZM1020.5,1349.99C1021.3,1350.64 1021.93,1351.31 1021.93,1351.4C1021.93,1351.48 1021.5,1354.08 1020.9,1357.2C1019.87,1362.74 1019.01,1365.52 1015.4,1374.16C1012.51,1381.06 1011.7,1382.8 1010.64,1384.65C1000.58,1402.37 1000.16,1402.99 992.915,1411.5C979.337,1427.54 876.029,1531.6 852.4,1539.18C871.374,1512.89 916.194,1478 946.202,1445.9C992.092,1396.82 1001.46,1384.28 1007.81,1364.1C1009.69,1358.19 1013.34,1350.75 1015.04,1349.57C1016.81,1348.39 1018.98,1348.49 1020.5,1349.99ZM892.193,711.525C894.082,713.781 900.673,724.991 906.84,736.473C922.773,766.365 926.167,772.354 928.048,774.352C929.029,775.264 929.754,776.271 929.765,776.615C929.781,777.13 930.874,778.812 936.785,787.723C937.42,788.647 938.986,791.603 940.371,794.307C942.955,799.292 945.884,801.598 949.512,801.471C951.413,801.405 955.314,796.366 957.07,791.832C957.945,789.479 963.496,784.641 965.397,784.575C967.125,784.514 968.368,788.17 967.964,791.71C967.35,796.806 963.861,803.895 961.314,805.36C960.127,806.09 958.369,807.871 957.379,809.368C956.474,810.776 953.818,814.223 951.483,816.885C949.15,819.632 945.148,824.245 942.565,827.259C934.478,836.572 923.205,859.673 920.337,872.589C915.661,893.739 914.591,906.076 915.366,929.96C916.127,953.414 917.908,962.986 925.357,984.659C926.408,987.718 927.913,991.45 928.651,992.887C929.392,994.409 930.513,996.95 931.251,998.387C934.23,1004.91 940.211,1015.97 941.002,1016.37C941.529,1016.61 941.903,1017.45 941.922,1018.06C942.092,1023.3 969.149,1052.2 982.685,1061.53C988.788,1065.7 989.853,1066.53 996.856,1071.79C1001.82,1075.57 1004.56,1077.2 1013.62,1082.13C1018.02,1084.47 1023.14,1087.39 1024.99,1088.61C1028.88,1091.23 1030.72,1092.02 1047.48,1099.35C1059.67,1104.6 1061.51,1105.31 1073.14,1109.21C1076.99,1110.45 1080.85,1112.12 1081.91,1112.94C1082.89,1113.77 1085.1,1115.16 1086.86,1116.04C1090.9,1118.14 1094.01,1120.69 1094.06,1121.98C1094.07,1122.58 1094.9,1124.02 1095.89,1125.19C1098.23,1127.94 1098.17,1128.98 1095.69,1129.75C1093.46,1130.35 1089.79,1129.01 1083.61,1125.27C1075.85,1120.64 1071.15,1122.35 1067.36,1131C1065.99,1134.14 1063.3,1139.14 1061.41,1142.04C1057.94,1147.15 1036.38,1170.36 1025.05,1181.07C1022.03,1183.93 1018.25,1187.5 1016.66,1189.11C998.136,1207.21 982.861,1221.59 973.86,1229.39C971.084,1231.81 966.966,1235.48 964.784,1237.53C962.599,1239.5 959.48,1242.02 957.699,1243.11C956.008,1244.29 954.497,1245.72 954.174,1246.42C953.937,1247.12 952.513,1248.54 950.908,1249.71C949.303,1250.89 945.343,1254.12 942.06,1256.9C934.825,1263.18 926.312,1270.01 922.929,1272.37C921.488,1273.28 918.877,1275.43 917.029,1277.13C912.662,1281.15 897.886,1292.25 894.403,1294.18C892.876,1295.09 890.089,1297.16 888.161,1299.04C886.229,1300.83 882.085,1303.72 878.855,1305.47C875.712,1307.21 871.986,1309.67 870.559,1311.01C869.129,1312.26 864.556,1315.26 860.396,1317.64C856.235,1320.02 851.492,1323.11 849.892,1324.46C848.209,1325.89 843.973,1328.62 840.49,1330.55C837.003,1332.39 832.171,1335.4 829.808,1337.2C827.445,1339 823.967,1341.1 822.177,1341.94C810.328,1347.26 805.905,1349.56 804.395,1350.99C801.123,1354.11 792.348,1358.2 787.44,1358.89C784.687,1359.33 781.76,1359.78 780.902,1359.98C778.327,1360.59 777.929,1358.96 780.108,1356.82C781.195,1355.67 782.942,1353.54 783.929,1351.96C785.082,1350.2 788.036,1347.95 791.523,1346.1C797.985,1342.7 805.777,1337.61 806.513,1336.29C806.842,1335.77 811.339,1333.11 816.529,1330.44C821.801,1327.67 826.803,1324.58 827.72,1323.51C828.637,1322.45 831.087,1320.64 833.21,1319.45C839.926,1315.86 845.433,1312.31 847.448,1310.44C849.463,1308.56 854.042,1305.73 860.337,1302.5C862.463,1301.4 865.172,1299.58 866.345,1298.42C867.516,1297.18 871.487,1294.29 875.213,1291.84C878.853,1289.39 883.161,1286.23 884.761,1284.88C886.357,1283.45 888.98,1281.64 890.682,1280.8C892.382,1279.88 895.679,1277.53 897.95,1275.56C900.308,1273.59 904.271,1270.44 906.807,1268.63C909.34,1266.73 912.709,1263.95 914.211,1262.26C915.716,1260.66 917.402,1259.31 917.834,1259.3C918.785,1259.27 932.431,1248.04 939.658,1241.51C941.756,1239.54 944.627,1237.38 946.156,1236.55C947.6,1235.73 949.537,1234.11 950.365,1232.96C951.192,1231.82 953.04,1230.12 954.394,1229.21C957.354,1227.13 965.837,1219.35 978.751,1206.86C983.865,1201.86 989.154,1196.95 990.5,1195.78C993.114,1193.71 1003.93,1183.27 1011.38,1175.61C1013.72,1173.12 1021.34,1165.38 1028.2,1158.25C1035.15,1151.13 1044.44,1141.69 1048.8,1137.32C1056.01,1130.19 1057,1128.87 1057.41,1125.5C1058.04,1121 1056.88,1119.75 1051.67,1119.08C1049.93,1118.88 1046.35,1117.88 1043.72,1116.86C1041.1,1115.92 1037.95,1114.91 1036.74,1114.69C1033.69,1114.11 1027.88,1116.21 1021.77,1120.03C1017.11,1122.95 1007.95,1128.34 975.941,1146.92C969.914,1150.4 963.384,1154.41 961.609,1155.67C959.836,1157.03 957.969,1158.12 957.624,1158.14C956.933,1158.16 934.27,1171.42 932.671,1172.77C932.253,1173.21 927.668,1175.87 922.485,1178.71C917.388,1181.56 912.55,1184.39 911.878,1185.02C911.21,1185.73 907.559,1187.84 903.819,1189.86C900.079,1191.88 891.504,1196.83 884.713,1200.76C877.924,1204.78 869.77,1209.37 866.454,1211.12C863.224,1212.87 859.236,1215.24 857.72,1216.5C856.201,1217.67 851.787,1220.23 847.958,1222.17C844.128,1224.11 837.763,1227.86 833.865,1230.32C829.969,1232.86 826.404,1234.96 825.972,1234.98C824.677,1235.03 814.048,1240.64 811.261,1242.72C809.912,1243.8 805.495,1246.27 801.496,1248.31C797.494,1250.25 793.331,1252.55 792.146,1253.36C790.965,1254.26 786.798,1256.47 782.797,1258.42C778.795,1260.37 771.825,1264.13 767.33,1266.87C762.832,1269.52 758.752,1271.73 758.234,1271.75C756.938,1271.79 744.021,1278.87 741.237,1281.03C740.055,1281.93 735.97,1283.96 732.216,1285.56C722.83,1289.5 718.661,1291.62 712.221,1295.72C709.169,1297.63 703.635,1300.32 699.962,1301.74C692.27,1304.58 684.272,1308.65 681.24,1311.16C680.148,1312.14 675.806,1314.28 671.623,1315.97C656.769,1321.99 652.934,1323.76 649.206,1326.13C644.036,1329.4 635.765,1333.05 627.457,1335.57C623.69,1336.74 618.467,1338.38 615.814,1339.25C610.678,1340.89 609.025,1340.6 608.945,1338.11C608.883,1336.22 610.898,1334.34 614.819,1332.57C616.441,1331.91 619.147,1330.01 620.741,1328.5C624.266,1325.19 634.112,1319.43 638.822,1317.97C640.706,1317.39 645.293,1314.82 649.1,1312.2C652.906,1309.57 657.658,1306.74 659.793,1305.89C667.309,1302.96 674.46,1299.44 678.016,1297.08C680.047,1295.72 686.93,1291.95 693.482,1288.63C699.95,1285.39 706.58,1281.81 708.185,1280.63C709.704,1279.46 711.491,1278.54 712.095,1278.52C712.614,1278.5 716.869,1276.37 721.543,1273.8C726.13,1271.23 733.013,1267.47 736.756,1265.53C742.795,1262.39 748.655,1259.09 759.697,1252.86C761.567,1251.85 766.583,1249.18 770.749,1246.97C782.142,1240.89 815.7,1222.26 822.829,1218.06C826.22,1215.96 829.877,1214.03 830.902,1213.65C831.928,1213.27 835.498,1211.34 838.719,1209.33C844.569,1205.69 853.316,1200.74 871.838,1190.46C888.659,1181.1 898.167,1175.61 899.427,1174.44C900.603,1173.37 904.677,1170.99 930.837,1156.23C935.254,1153.76 939.836,1151.02 941.017,1150.12C942.199,1149.21 943.985,1148.29 945.011,1147.91C946.036,1147.53 948.33,1146.25 950.016,1144.9C951.791,1143.63 955.946,1141.08 959.257,1139.16C962.481,1137.24 970.71,1132.31 977.496,1128.2C984.282,1124.09 992.854,1119.06 996.594,1117.04C1006.11,1111.89 1011.42,1107.58 1011.34,1105.09C1011.27,1102.94 1005.95,1098.82 1003.36,1098.91C1000.33,1099.02 985.912,1091.69 976.972,1085.38C974.849,1083.91 972.131,1082.8 970.836,1082.85C969.367,1082.9 965.373,1085.1 960.388,1088.71C955.996,1091.96 951.258,1095.23 949.898,1095.96C948.628,1096.78 946.93,1097.79 946.253,1098.24C937.614,1103.87 927.69,1109.9 914.615,1117.4C910.794,1119.6 906.555,1122.25 905.117,1123.24C903.768,1124.32 900.544,1126.24 897.908,1127.62C895.355,1128.91 887.287,1133.5 880.072,1137.7C872.857,1141.91 864.282,1146.86 860.966,1148.61C857.733,1150.27 853.492,1152.82 851.63,1154.09C849.769,1155.36 845.778,1157.65 842.71,1159.05C839.644,1160.53 833.864,1163.66 829.793,1166.12C825.721,1168.59 822.068,1170.61 821.809,1170.62C821.463,1170.63 812.788,1175.14 802.504,1180.75C792.305,1186.27 783.546,1190.87 783.114,1190.89C782.423,1190.91 776.897,1193.86 763.64,1201.12C761.093,1202.58 757.088,1204.44 754.694,1205.3C752.387,1206.15 747.114,1208.92 743.126,1211.29C739.141,1213.75 732.667,1216.82 728.735,1218.25C724.803,1219.67 718.413,1222.65 714.592,1224.85C710.771,1227.04 704.041,1230.2 699.599,1231.91C695.073,1233.7 688.34,1236.77 684.52,1238.97C680.783,1241.08 672.938,1244.53 667.124,1246.63C661.397,1248.72 653.383,1252.27 649.216,1254.48C645.139,1256.77 638.404,1259.76 634.293,1261.02C623.937,1264.39 617.965,1266.92 614.498,1269.37C612.807,1270.54 609.234,1272.39 606.417,1273.52C599.411,1276.17 577.506,1281.68 571.763,1282.38C570.214,1282.57 571.039,1278.99 571.958,1277.73C573.172,1276.07 576.551,1273.99 579.05,1272.41C582.652,1270.13 588.581,1266.58 593.569,1264.08C598.817,1261.44 607.411,1258.86 610.538,1256.6C613.414,1254.61 622.873,1250.24 636.107,1244.96C638.582,1243.93 642.068,1242.08 643.757,1240.82C645.362,1239.65 647.059,1238.64 647.491,1238.63C648.874,1238.58 664.134,1231.77 671.533,1227.9C675.786,1225.68 680.128,1223.55 681.326,1223.17C682.527,1222.87 689.597,1219.53 697.088,1215.82C713.516,1207.68 720.929,1204.24 721.793,1204.21C722.139,1204.2 723.409,1203.38 724.677,1202.48C725.943,1201.49 730.792,1198.99 735.482,1196.94C740.258,1194.88 747.323,1191.36 751.316,1189.16C755.221,1186.87 759.39,1184.75 760.588,1184.36C761.7,1183.98 768.508,1180.56 775.654,1176.87C782.796,1173.1 788.838,1170.05 789.011,1170.04C790.307,1170 855.473,1133.92 871.001,1124.69C874.055,1122.86 878.219,1120.57 880.262,1119.55C882.304,1118.53 884.932,1116.89 886.2,1115.99C887.466,1115 891.704,1112.36 895.698,1110.15C906.569,1104.01 913.525,1099.81 927.005,1091.43C931.921,1088.33 938.372,1084.58 941.348,1083.01C944.411,1081.44 948.067,1079.51 949.427,1078.78C952.574,1077.12 955.948,1071.84 955.519,1069.27C955.316,1068.34 953.794,1066.75 952.117,1065.69C945.679,1061.88 941.329,1058.41 940.038,1055.97C935.981,1048.19 930.491,1046.92 922.267,1052.03C912.26,1058.14 892.975,1068.88 875.973,1077.98C848.762,1092.35 836.601,1098.71 835.996,1098.73C835.737,1098.74 831.141,1101.05 825.869,1103.82C820.596,1106.58 816.001,1108.89 815.569,1108.9C815.223,1108.92 811.305,1110.77 806.969,1113.08C802.546,1115.38 797.61,1117.88 795.816,1118.54C794.024,1119.29 788.57,1121.8 783.632,1124.21C778.694,1126.62 773.326,1129.13 771.704,1129.79C770.082,1130.45 765.058,1132.86 760.635,1135.16C756.21,1137.38 749.903,1140.27 746.74,1141.41C743.491,1142.56 737.184,1145.44 732.681,1147.92C728.088,1150.32 722.548,1152.83 720.146,1153.43C717.833,1154.12 712.033,1156.64 707.357,1159.13C702.681,1161.61 696.199,1164.42 692.852,1165.22C689.594,1166.11 682.426,1169.11 677.065,1171.8C671.705,1174.56 665.566,1177.27 663.423,1177.86C655.796,1180.02 648.366,1182.95 640.794,1186.82C636.625,1188.95 629.708,1191.68 625.422,1192.86C614.713,1195.99 608.219,1198.45 604.148,1200.92C600.503,1203.19 591.41,1205.95 586.549,1207.64C582.752,1208.96 578.875,1210.05 574.984,1211.05C569.609,1212.44 558.543,1215.24 554.3,1215.99C552.727,1216.27 550.715,1216.13 549.529,1215.55C548.38,1215 546.267,1213.43 547.183,1212.54C548.51,1211.25 554.142,1209.34 557.494,1207.79C560.763,1206.28 564.02,1204.74 567.292,1203.24C572.519,1200.83 583.269,1195.84 588.854,1193.37C592.798,1191.62 596.825,1190.07 600.801,1188.39C605.252,1186.52 608.556,1184.85 615.56,1182.11C622.652,1179.46 631.269,1175.8 634.758,1174.05C638.25,1172.38 645.161,1169.47 650.119,1167.66C655.077,1165.85 662.331,1162.85 666.335,1160.99C670.34,1159.13 676.482,1156.51 679.985,1155.18C683.491,1153.94 690.396,1150.86 695.332,1148.37C700.27,1145.96 705.47,1143.62 706.841,1143.23C710.701,1142.24 720.082,1138.13 723.897,1135.76C725.761,1134.57 729.426,1132.9 731.992,1132.03C737.722,1130.03 745.737,1126.48 750.324,1123.91C752.194,1122.9 756.371,1121.03 759.702,1119.71C762.945,1118.4 768.912,1115.69 772.911,1113.66C776.907,1111.55 782.105,1109.13 784.498,1108.27C786.89,1107.33 791.661,1105.1 795.15,1103.34C798.639,1101.58 808.512,1096.68 817.199,1092.51C825.885,1088.33 834.31,1084.08 835.923,1083.17C837.537,1082.25 844.426,1078.65 851.231,1075.15C863.733,1068.61 878.272,1060.87 896.717,1050.94C920.517,1038.07 919.67,1038.61 920.402,1034.55C921.222,1030.47 919.878,1026.39 916.662,1023.24C913.806,1020.5 913.368,1020.34 909.93,1020.98C907.867,1021.39 903.436,1023.44 900.134,1025.62C896.829,1027.71 890.706,1030.94 886.526,1032.72C882.346,1034.5 872.798,1038.79 865.296,1042.15C857.797,1045.59 849.016,1049.51 845.685,1050.83C842.442,1052.15 838.348,1053.92 836.734,1054.84C835.121,1055.76 830.511,1057.64 826.495,1059.15C822.477,1060.58 817.101,1062.84 814.546,1064.04C811.99,1065.25 805.675,1067.88 800.464,1069.87C795.339,1071.85 781.5,1077.15 769.712,1081.69C758.01,1086.23 746.472,1090.5 744.078,1091.36C741.768,1092.13 732.276,1095.47 723.13,1098.8C713.984,1102.13 701.064,1106.45 694.471,1108.49C687.874,1110.44 679.578,1113.31 676.08,1114.8C672.583,1116.3 664.964,1118.72 659.212,1120.04C653.374,1121.36 647.63,1122.94 646.351,1123.5C644.985,1124.06 639.334,1125.81 633.676,1127.38C628.016,1128.87 621.342,1131.08 618.781,1132.11C616.223,1133.24 604.807,1136.13 597.782,1138.01C585.978,1141.16 558.624,1148.43 547.954,1151.01C543.287,1152.14 537.651,1153.32 533.764,1153.49C530.681,1153.62 526.27,1152.66 524.634,1152C523.838,1151.68 523.303,1150.1 523.949,1149.53C525.701,1147.99 531.157,1144.53 535.146,1142.77C540.433,1140.44 548.787,1137.82 555.668,1135.52C562.798,1133.13 570.491,1130.77 577.926,1128.46C587.274,1125.57 600.642,1122.17 611.755,1118.17C616.457,1116.45 624.165,1114.12 628.88,1112.84C633.598,1111.64 643.444,1108.55 650.715,1106.06C657.983,1103.48 667.999,1100.29 672.97,1098.91C677.942,1097.54 685.987,1094.93 690.945,1093.13C695.906,1091.41 704.974,1088.34 711.049,1086.32C717.214,1084.38 727.221,1080.94 733.288,1078.66C739.441,1076.38 746.709,1073.81 749.535,1072.93C752.361,1072.06 759.286,1069.58 764.921,1067.32C770.556,1065.06 778.245,1062.13 782.007,1060.79C791.499,1057.45 811.653,1049.52 823.853,1044.37C859.945,1029.17 878.79,1020.86 882.688,1018.4C884.556,1017.3 888.989,1015.34 892.495,1014.1C906.357,1009.49 910.554,1002.89 905.418,993.87C903.403,990.413 902.962,990.171 899.498,990.033C896.466,989.881 894.072,990.739 887.607,994.061C878.246,998.774 854.16,1008.13 837.124,1013.54C830.79,1015.57 822.661,1018.26 819.158,1019.59C815.655,1020.91 808.888,1022.96 804.256,1024.15C799.541,1025.43 793.031,1027.38 789.787,1028.7C786.454,1029.93 779.345,1032.07 773.852,1033.38C768.36,1034.69 756.19,1038.12 746.765,1040.86C737.34,1043.6 726.192,1046.57 721.895,1047.41C717.682,1048.16 710.129,1049.97 705.155,1051.26C700.18,1052.55 693.659,1054.15 690.566,1054.78C687.473,1055.4 682.325,1056.7 678.984,1057.68C675.732,1058.74 668.522,1060.45 663.11,1061.59C657.701,1062.81 648.767,1064.67 643.355,1065.8C637.945,1067.02 630.207,1068.41 626.16,1068.98C622.116,1069.64 615.155,1071 610.693,1072.1C606.232,1073.2 600.521,1074.03 596.079,1074.85C592.07,1075.58 588.052,1076.27 584.04,1076.99C579.096,1077.88 572.216,1079.09 566.414,1080.18C560.677,1081.26 554.977,1082.54 549.225,1083.54C543.419,1084.54 537.177,1085.42 531.581,1086.21C526.278,1086.97 520.137,1088.02 515.649,1088.32C511.99,1088.56 507.522,1088.4 504.655,1088.02C502.497,1087.72 499.916,1086.79 498.449,1086C497.339,1085.39 494.667,1083.69 495.852,1083.25C501.092,1081.27 520.715,1076.5 529.893,1074.15C536.873,1072.36 544.625,1070.62 550.919,1069.11C556.498,1067.77 562.036,1066.25 567.654,1065.09C578.894,1062.76 606.516,1057.97 618.36,1055.15C624.022,1053.75 631.151,1052.21 634.245,1051.58C637.338,1050.96 641.97,1049.77 644.542,1049.07C647.111,1048.3 656.639,1046.07 665.571,1044.12C674.589,1042.18 691.151,1038.16 702.471,1035.18C713.791,1032.21 724.771,1029.42 726.92,1029C729.071,1028.66 732.931,1027.67 735.5,1026.89C738.07,1026.11 750.844,1022.66 763.789,1019.11C776.737,1015.65 790.448,1011.73 794.213,1010.48C797.975,1009.14 804.917,1007.18 809.632,1005.9C814.35,1004.7 823,1002.08 828.814,999.983C834.63,997.973 840.022,996.237 840.713,996.213C841.491,996.186 847.137,994.269 853.29,991.99C859.357,989.714 869.019,986.28 874.662,984.277C887.493,979.873 893.613,976.563 895.154,973.413C896.374,971.048 896.084,964.779 894.493,958.384C893.088,952.412 889.382,952.799 867.843,960.69C859.382,963.823 846.46,968.059 839.172,970.033C831.887,972.094 822.632,974.739 818.608,975.997C814.581,977.17 808.233,978.768 804.449,979.416C800.664,980.064 792.34,982.075 786,983.93C774.602,987.166 756.83,991.227 743.501,993.584C739.717,994.232 734.48,995.447 731.908,996.139C725.052,998.098 694.646,1004.58 688.099,1005.41C685,1005.86 678.033,1007.05 672.619,1008.1C667.204,1009.15 658.86,1010.56 654.128,1011.32C649.393,1012 644.149,1012.96 642.521,1013.45C640.894,1013.94 635.044,1014.91 629.618,1015.62C624.195,1016.41 617.401,1017.59 614.569,1018.3C611.741,1019.08 604.774,1020.27 599.175,1020.98C593.576,1021.69 591.997,1022 588.415,1022.56C580.728,1023.76 564.897,1026.72 553.051,1028.18C539.411,1029.86 515.384,1032.16 506.578,1032.64C504.392,1032.76 501.641,1031.55 500.213,1031.06C499.391,1030.77 498.81,1030 498.006,1029.67C496.428,1029.03 490.089,1028.26 490.746,1027.17C491.403,1026.09 498.076,1024.03 501.946,1023.17C509.03,1021.59 525.237,1019.06 533.25,1017.69C538.835,1016.74 544.44,1015.9 550.027,1014.96C555.905,1013.96 562.57,1012.81 568.517,1011.73C574.256,1010.69 579.976,1009.54 585.709,1008.46C592.3,1007.23 600.404,1005.54 608.062,1004.33C631.123,1000.69 655.195,996.235 674.689,991.942C681.046,990.602 690.153,988.736 694.882,987.883C707.523,985.636 721.095,982.754 740.408,978.21C749.852,976.074 763.159,973.029 770.031,971.585C776.901,970.056 786.081,967.757 790.364,966.489C794.734,965.219 801.854,963.422 806.235,962.495C810.616,961.568 820.225,959.169 827.509,957.108C834.794,955.048 844.308,952.394 848.508,951.215C852.794,950.033 859.903,947.893 864.351,946.362C868.801,944.916 874.971,943.153 878.065,942.529C885.539,940.978 889.761,937.82 892.754,931.437C894.855,926.891 894.916,926.115 893.888,923.742C892.308,920.357 889.22,918.486 886.216,919.193C884.842,919.499 878.07,921.37 870.955,923.338C863.927,925.304 855.177,927.501 851.657,928.312C848.134,929.037 842.728,930.344 839.64,931.14C836.552,931.935 830.965,932.991 827.175,933.467C823.382,933.857 817.622,934.918 814.272,935.637C811.008,936.353 805.34,937.583 801.815,938.222C798.289,938.861 791.328,940.222 786.348,941.342C777.157,943.297 756.588,946.423 731.267,949.715C723.427,950.676 711.458,952.298 704.569,953.227C697.68,954.155 688.634,955.245 684.32,955.567C680.095,955.973 672.08,956.854 666.652,957.474C647.356,959.867 587.281,964.056 570.451,964.701C568.499,964.776 566.628,962.369 565.672,961.341C564.998,960.617 564.464,959.493 564.716,958.536C564.998,957.465 565.911,955.278 567.366,954.917C573.429,953.415 587.818,950.849 601.095,949.526C608.251,948.846 618.68,947.708 624.365,946.994C653.052,943.498 665.799,941.85 675.611,940.389C681.553,939.58 691.63,938.282 698.006,937.543C704.382,936.805 710.151,936.002 710.834,935.72C711.519,935.524 718.146,934.518 725.467,933.575C758.026,929.429 784.534,925.407 798.275,922.433C802.054,921.614 808.417,920.445 812.46,919.788C828.724,917.243 843.681,914.398 857.163,911.434C864.978,909.699 875.119,907.711 879.681,907.036C891.909,905.405 895.136,903.572 897.77,896.771C901.114,887.881 896.087,884.874 883.488,888.41C876.206,890.557 839.938,895.004 814.659,896.918C790.935,898.778 700.715,901.066 688.143,900.128C683.637,899.856 672.557,899.554 663.477,899.613C654.481,899.583 643.312,899.198 638.797,898.668C634.283,898.137 627.263,897.694 623.194,897.578C611.765,897.202 608.552,896.798 607.125,895.472C606.144,894.56 606.033,893.79 606.598,892.566C607.003,891.692 607.134,890.397 606.849,889.633C605.916,887.515 609.848,886.088 617.623,885.817C621.681,885.589 638.192,885.357 654.362,885.223C683.066,884.909 755.291,882.476 779.027,880.959C791.888,880.167 865.716,876.473 884.716,875.638C898.536,875.069 899.386,874.61 898.255,869.058L897.538,865.643L892.795,866.067C890.123,866.332 885.017,866.252 881.545,865.857C877.983,865.379 870.091,864.708 863.849,864.238C843.215,862.722 821.425,860.213 803.077,857.155C798.295,856.376 792.038,855.476 789.171,855.06C786.306,854.73 780.222,853.824 775.696,852.95C771.173,852.161 763.961,851.123 759.619,850.586C755.367,850.133 747.285,848.952 741.803,847.939C736.324,847.012 729.628,845.87 727.022,845.531C721.897,844.849 710.502,842.839 695.274,840.015C690.052,838.994 684.141,838.082 682.229,837.804C680.32,837.613 671.093,835.784 661.777,833.873C652.458,831.876 641.837,829.752 638.27,829.103C634.703,828.453 629.896,826.9 627.694,825.687C625.49,824.388 622.77,823.193 621.552,822.977C620.421,822.758 618.668,822.045 617.782,821.388C616.101,820.243 616.098,820.157 617.882,819.148C620.259,817.775 638.485,817.053 642.498,818.118C644.067,818.493 648.066,819.128 651.368,819.614C660.052,820.688 679.95,823.52 692.644,825.571C704.816,827.555 723.502,830.343 733.93,831.872C737.754,832.427 744.793,833.471 749.573,834.164C754.355,834.944 764.959,836.552 773.04,837.732C781.211,838.995 798.164,841.672 810.857,843.724C823.554,845.861 835.462,847.682 837.374,847.959C841.105,848.345 857.191,850.967 871.281,853.399C876.066,854.265 882.933,855.315 886.494,855.793C890.056,856.271 894.844,857.222 897.028,857.92C900.35,859.008 901.733,858.96 904.645,858.084C908.07,857.018 908.237,856.841 907.975,854.097C907.646,851.959 899.676,835.55 899.665,835.207C899.654,834.863 898.324,833.877 896.828,833.069C895.242,832.179 892.505,830.468 890.733,829.153C888.963,827.925 885.014,826.171 882.049,825.414C879.081,824.571 876.016,823.388 875.216,822.728C874.33,822.071 867.558,818.608 860.092,815.084C852.629,811.646 843.126,806.645 839.152,804.117C835.091,801.593 831.48,799.568 831.134,799.581C830.27,799.611 822.389,793.951 814.491,787.776C810.673,784.726 806.59,781.514 805.35,780.611C795.78,773.548 788.479,767.094 788.426,765.462C788.418,765.204 785.02,761.796 780.832,757.986C773.606,751.185 771.789,748.496 772.371,745.121C772.945,741.489 780.447,743.463 788.156,749.129C791.968,752.006 792.233,752.169 794.819,754.573C800.877,760.039 802.65,761.353 810.503,766.154C812.443,767.29 815.007,769.007 816.25,769.996C817.49,770.899 820.24,773.039 822.459,774.768C825.917,777.4 830.42,780.253 843.652,788.22C844.887,788.951 848.685,791.399 852.046,793.69C855.491,795.892 858.579,797.763 859.01,797.748C859.874,797.718 861.46,798.608 870.021,803.901C879.728,809.841 881.227,810.735 882.453,811.208C884.733,812.16 896,818.218 897.418,819.287C898.129,819.864 901.295,821.474 904.28,822.832C907.353,824.273 911.23,826.46 912.83,827.78C916.65,830.916 921.669,830.998 922.695,827.952C923.807,824.903 922.569,821.42 920.017,820.047C918.785,819.402 916.672,818.271 915.435,817.454C914.201,816.723 910.762,814.693 907.936,812.899C901.495,808.995 895.122,804.487 890.05,800.105C888.718,799.034 884.095,795.152 879.655,791.609C875.299,787.976 869.411,782.419 866.448,779.082C863.575,775.828 859.537,771.324 857.478,769.159C855.415,766.909 853.345,764.401 852.882,763.471C852.422,762.627 851.706,761.878 851.36,761.89C850.669,761.914 847.331,757.644 844.6,753.439C844.051,752.512 842.969,751.173 842.253,750.424C838.313,746.261 834.829,734.857 836.835,732.723C838.424,731.033 844.326,734.353 851.107,740.74C858.247,747.544 866.654,756.11 870.606,760.616C873.212,763.622 890.002,779.98 907.495,796.658C914.9,803.625 922.578,811.012 924.634,813.091C929.194,817.662 932.49,817.977 935.311,814.266C937.713,811 936.952,808.876 930.592,802.131C925.663,796.799 919.334,788.332 915.769,782.436C914.944,781.002 913.938,779.317 913.398,778.648C912.943,777.976 909.817,772.236 906.5,765.987C903.098,759.741 899.979,754.259 899.53,753.758C899.085,753.344 898.708,752.411 898.686,751.724C898.664,751.036 898.106,749.851 897.479,749.185C896.763,748.436 895.662,746.496 895.005,744.885C894.347,743.274 893.227,740.732 892.577,739.379C887.653,728.885 883.289,711.663 884.548,707.835C885.345,705.743 888.598,707.349 892.193,711.525ZM1018.3,1247.18L997.292,1277.02L977.929,1294.74C974.276,1296.75 969.108,1301.19 967.787,1303.13C962.007,1311.59 944.332,1324.26 933.839,1328.75C931.707,1329.69 927.368,1331.9 924.058,1333.83C915.143,1338.95 898.33,1345.9 892.221,1346.89C886.717,1347.86 883.315,1346.94 883.409,1344.53C883.354,1342.82 892.99,1335.94 897.859,1334.05C900.336,1333.11 905.609,1330.34 909.597,1327.96C913.585,1325.59 920.8,1321.38 925.724,1318.54C930.651,1315.79 936.501,1312.15 938.777,1310.35C940.971,1308.64 945.959,1305.11 949.771,1302.65C953.497,1300.2 956.794,1297.85 956.953,1297.41C957.265,1296.37 962.761,1292.48 967.437,1289.99C969.22,1288.99 971.324,1287.19 972.063,1285.96C972.801,1284.73 974.908,1283.03 976.867,1282.1C981.636,1279.78 1018.13,1241.94 1018.3,1247.18ZM724.424,778.79C728.797,780.272 733.512,781.656 734.905,781.951C736.382,782.158 739.272,783.261 741.468,784.302C746.387,786.625 760.304,791.73 761.6,791.685C762.119,791.667 766.235,793.244 770.621,795.155C775.094,797.063 781.66,799.5 785.241,800.58C788.822,801.659 795.123,803.933 799.245,805.682C803.363,807.344 809.403,809.542 812.719,810.458C816.035,811.375 821.113,813.262 824.011,814.623C826.907,815.898 832.862,818.185 837.232,819.581C841.601,820.976 847.376,823.011 850.004,824.038C852.634,825.15 857.007,826.632 859.624,827.314C864.425,828.695 871.771,831.191 880.174,834.252C882.626,835.199 887.676,836.227 891.494,836.61C898.001,837.243 904.299,844.764 897.828,845.248C891.876,845.714 879.196,844.092 874.294,842.285C872.805,841.735 868.62,840.676 865.139,840.024C857.656,838.651 829.133,831.217 823.356,829.096C821.169,828.312 814.528,826.221 808.502,824.453C802.477,822.685 796.179,820.497 794.507,819.609C792.835,818.721 786.534,816.447 780.503,814.507C774.475,812.653 768.612,810.535 767.375,809.718C764.641,808.093 753.513,803.665 747.923,801.968C745.654,801.359 742.934,800.163 741.783,799.344C740.632,798.524 735.19,796.047 729.583,793.834C718.633,789.572 713.257,786.491 707.104,780.771C703.091,777.04 702.885,776.015 706.045,774.787C708.093,773.941 712.536,774.904 724.424,778.79Z" style="fill:rgb(237,30,36);fill-rule:nonzero;"/>
        </g>
    </g>
</svg>
